<svg width="144" height="35" viewBox="0 0 144 35" fill="none" xmlns="http://www.w3.org/2000/svg">
<path d="M78.5863 0.0319853C79.5337 -0.0243138 80.9219 0.0125334 81.8998 0.00464773C82.0155 2.55965 81.9339 5.75117 81.9346 8.34332L81.9317 24.4826C80.8332 24.4056 79.6899 24.5362 78.5714 24.4238C78.5814 23.8915 78.5792 23.3461 78.5828 22.8124C74.8463 25.3436 71.5726 25.599 67.6169 23.3986C65.5258 21.9701 64.0616 20.1217 63.5306 17.5975C62.9954 15.1361 63.4653 12.563 64.8361 10.4491C66.1632 8.42735 68.7033 6.84029 71.0723 6.45728C74.1289 5.963 76.1216 6.76334 78.5572 8.3607C78.653 5.65036 78.4806 2.76473 78.5863 0.0319853ZM73.6413 21.4412C76.8576 20.8972 79.0327 17.8637 78.5139 14.6459C77.9959 11.428 74.9776 9.22982 71.7536 9.72169C68.492 10.2192 66.2613 13.2774 66.7856 16.5323C67.3099 19.7872 70.3882 21.9915 73.6413 21.4412Z" fill="white"/>
<path d="M8.61385 6.33002C10.8294 6.33505 12.7961 6.67934 14.7056 7.95503C18.8545 10.7269 19.8879 16.4837 17.2691 20.6354C16.8883 21.2391 16.3974 21.7896 15.9773 22.3878C16.3483 23.2922 17.2158 24.538 17.7558 25.3731L19.9983 28.8742C19.672 29.3798 18.3146 31.4665 17.6836 31.2971C17.247 31.18 16.2881 29.4509 15.9785 28.9945C15.126 27.5081 13.9037 25.7027 12.9648 24.2158C10.5478 24.9844 8.91858 25.1876 6.48759 24.3922C1.56453 22.7812 -1.21608 17.5329 0.517533 12.5606C1.42991 9.86901 3.57634 7.77625 6.29158 6.93102C6.94427 6.72515 8.12495 6.56545 8.61385 6.33002ZM10.4362 21.4482C13.6809 20.8747 15.8374 17.7705 15.2407 14.5324C14.6439 11.2943 11.5222 9.16142 8.28598 9.78058C5.08191 10.3936 2.97318 13.4752 3.564 16.6811C4.15482 19.887 7.22381 22.0159 10.4362 21.4482Z" fill="white"/>
<path d="M29.6181 6.32336C34.758 5.85702 39.2985 9.65365 39.7453 14.7915C40.1921 19.9294 36.3752 24.4517 31.2317 24.8783C26.1164 25.3026 21.6207 21.5138 21.1764 16.4039C20.732 11.2941 24.5062 6.78721 29.6181 6.32336ZM31.0196 21.5391C34.3076 21.2515 36.7382 18.3525 36.4457 15.0673C36.1532 11.7822 33.2485 9.35758 29.9613 9.65457C26.6808 9.95106 24.2604 12.8463 24.5524 16.1247C24.8443 19.4032 27.7383 21.826 31.0196 21.5391Z" fill="white"/>
<path d="M35.8021 19.7764C35.9142 19.8934 35.8839 19.8428 35.9039 20.0176C35.7822 20.3228 35.4592 20.6368 35.2312 20.8872C35.1266 20.8486 35.1474 20.8455 35.0678 20.7494C35.0995 20.3448 35.4887 20.0747 35.8021 19.7764Z" fill="white"/>
<path d="M50.6088 6.3706C55.7078 5.85385 60.2625 9.56055 60.7883 14.6548C61.314 19.7491 57.6122 24.3066 52.515 24.8405C47.4057 25.3757 42.8316 21.666 42.3046 16.5595C41.7776 11.4532 45.4978 6.88863 50.6088 6.3706ZM52.3064 21.4931C55.5642 21.0691 57.8636 18.0899 57.4464 14.8337C57.0291 11.5775 54.0528 9.27328 50.7932 9.68309C47.5235 10.0942 45.2089 13.0795 45.6275 16.3458C46.046 19.6121 49.0386 21.9184 52.3064 21.4931Z" fill="white"/>
<path d="M110.674 6.33575C113.212 6.08096 116.145 7.02547 117.984 8.83017C120.39 11.1926 120.775 13.7203 120.848 16.9466C118.492 16.8171 115.493 16.9278 113.065 16.889C111.191 16.8593 107.917 16.8026 106.134 16.9363C106.386 17.9698 106.765 18.775 107.491 19.5776C109.437 21.7288 112.355 22.0786 114.898 20.7961C115.636 20.4243 116.226 19.838 116.835 19.2709C116.973 19.0764 117.134 18.881 117.283 18.693C118.249 19.1741 119.189 19.708 120.097 20.2924C118.76 22.5794 116.333 24.1506 113.764 24.6853C105.472 26.4117 99.5118 16.9446 104.362 10.1125C106 7.80503 107.965 6.87173 110.674 6.33575ZM106.251 13.6834C107.378 13.7779 108.616 13.7377 109.755 13.7282C110.782 13.7197 111.838 13.7456 112.859 13.7278C113.529 13.7291 116.726 13.8277 117.047 13.6153C117.112 13.4565 117.128 13.4035 117.041 13.2359C115.63 10.5177 113.943 9.56485 110.974 9.67399C109.262 9.96225 108.156 10.5887 107.13 12.0305C106.768 12.5421 106.473 13.0975 106.251 13.6834Z" fill="white"/>
<path d="M100.246 22.7349C99.646 23.3701 98.3331 23.956 97.5347 24.2929C94.4561 25.5928 90.2463 24.6868 87.8192 22.406C86.0067 20.6976 84.9564 18.3334 84.9046 15.844C84.7115 9.5652 90.5926 5.09524 96.6604 6.63643C97.5936 6.8735 99.108 7.44578 99.8177 8.11628C100.243 8.39554 100.443 8.61424 100.799 8.97427L100.033 9.7532C99.5459 10.2489 99.008 10.9142 98.5211 11.3391C97.7809 10.7822 97.018 10.1608 96.1047 9.92212C93.552 9.25509 91.137 9.85148 89.5295 11.9895C88.563 13.2622 88.1485 14.8698 88.3792 16.4509C89.0654 21.2274 94.4781 23.0537 98.1564 20.1452C98.3366 19.9816 98.2536 20.0213 98.4927 19.9828C98.8596 20.0955 100.471 21.8273 100.696 22.1783C100.658 22.4434 100.463 22.5673 100.246 22.7349Z" fill="white"/>
<path d="M98.1563 20.1452C98.3366 19.9816 98.2536 20.0213 98.4927 19.9828C98.8596 20.0955 100.471 21.8273 100.696 22.1783C100.658 22.4434 100.463 22.5673 100.246 22.7349L100.448 22.3332C100.459 21.9235 100.339 21.7418 99.9468 21.6769L99.8801 21.7464C100.08 22.018 100.238 22.0794 100.288 22.3664L100.203 22.4325C99.9972 22.368 99.1996 21.1564 99.0143 20.8851C98.6957 21.2415 98.2117 20.4485 98.1563 20.1452Z" fill="white"/>
<path d="M99.8177 8.11627C100.243 8.39553 100.443 8.61424 100.799 8.97427L100.033 9.75319C99.9263 9.6854 99.883 9.6437 99.7907 9.5596C99.7205 9.22219 99.7063 8.79088 100.073 8.66465C100.281 8.81003 100.166 8.91371 100.329 9.18574L100.484 9.08255C100.561 8.59963 99.9717 8.71089 99.8177 8.11627Z" fill="white"/>
<path d="M131.742 0.0247167C132.744 0.0281135 133.982 -0.0149955 134.952 0.0383819C135.07 0.181303 135.072 0.456863 135.093 0.652346L135.083 23.658C135.074 23.8762 135.053 24.1834 135.059 24.3937C134.541 24.3952 132.026 24.4771 131.752 24.2935L131.717 24.0983C131.781 18.3332 131.684 12.5138 131.723 6.74012L131.711 2.99808C131.708 2.51048 131.673 1.42139 131.746 0.9741C131.728 0.707 131.742 0.302652 131.742 0.0247167Z" fill="white"/>
<path d="M131.742 0.0247167C132.744 0.0281135 133.982 -0.0149955 134.952 0.0383819C135.07 0.181303 135.072 0.456863 135.093 0.652346C134.391 0.386913 133.935 0.76732 133.485 0.453445L133.418 0.173127C133.107 0.15203 132.149 0.138939 131.887 0.245062C131.861 0.489746 131.853 0.756023 131.746 0.9741C131.728 0.707 131.742 0.302652 131.742 0.0247167Z" fill="white"/>
<path d="M131.717 24.0983C132.2 24.4577 134.817 23.9732 135.083 23.658C135.074 23.8762 135.053 24.1834 135.059 24.3937C134.541 24.3951 132.026 24.477 131.752 24.2935L131.717 24.0983Z" fill="white"/>
<path d="M124.717 0.0306892C125.502 6.82786e-05 126.425 0.0308595 127.22 0.0387168L127.217 14.9067C127.217 18.0396 127.176 21.2927 127.244 24.4165L126.228 24.3948L123.901 24.3888C124.227 21.4209 123.598 0.891585 124.023 0.152577C124.211 0.00453601 124.469 0.0344477 124.717 0.0306892Z" fill="white"/>
<path d="M3.13878 28.726C3.42451 28.9858 3.71699 29.2477 4.01421 29.4948C6.52456 31.5812 10.447 32.04 13.321 30.3843C13.6889 30.8203 14.0344 31.4147 14.3398 31.9076C15.1113 33.1631 15.4485 33.3664 13.8978 33.9072C10.6493 35.387 5.91134 34.9413 2.9727 32.9488C2.21106 32.4324 1.33205 31.6929 0.624676 31.0873C1.34415 30.3672 2.36477 29.3648 3.13878 28.726Z" fill="white"/>
<path d="M14.3398 31.9076C15.1113 33.1631 15.4484 33.3664 13.8978 33.9072C13.8763 33.5297 14.2673 32.4776 14.3398 31.9076Z" fill="white"/>
<path d="M140.387 1.88383C140.393 1.60366 140.347 1.40444 140.496 1.21673C140.742 1.16094 141.985 1.22997 141.997 1.57778C142.008 1.92436 141.739 2.49232 141.803 2.88765C141.844 3.2246 142.119 3.26986 142.098 3.63326C141.451 3.3732 141.475 2.9118 140.936 2.71422L140.856 2.75225C140.789 3.07173 140.741 3.30257 140.635 3.61011L140.535 3.64645C140.325 3.3373 140.386 2.32185 140.387 1.88383ZM141.483 2.43371C141.532 2.18604 141.609 1.94798 141.52 1.71655C141.303 1.54508 141.129 1.55812 140.831 1.55357C140.821 1.81383 140.77 2.21114 140.899 2.41779C141.161 2.52807 141.158 2.47779 141.483 2.43371Z" fill="white"/>
<path d="M140.365 0.0882136C141.466 0.125274 142.189 -0.142826 142.972 0.69003C143.423 1.1783 143.664 1.82485 143.64 2.48912C143.625 2.90739 143.592 3.26092 143.388 3.63062C143.283 3.46338 143.255 3.43779 143.089 3.32875C143.351 3.00782 143.278 2.19009 143.241 1.79182C142.8 1.10992 142.62 0.977262 141.989 0.481243C141.393 0.392536 141.053 0.400387 140.46 0.44168L140.365 0.0882136Z" fill="white"/>
<path d="M139.198 3.04889C139.369 3.41611 139.679 4.05039 140.058 4.22655C140.317 4.44982 141.001 4.70353 141.327 4.57834C141.535 4.73022 141.798 4.71158 142.058 4.72144C140.753 4.86483 139.413 4.86503 138.886 3.4221L139.198 3.04889Z" fill="white"/>
<path d="M138.943 1.34137L139.109 1.62501C139.207 1.54146 139.345 1.4154 139.447 1.34496C139.163 2.01492 139.196 2.33432 139.198 3.04892L138.886 3.42213C138.614 2.70794 138.636 2.04067 138.943 1.34137Z" fill="white"/>
<path d="M138.943 1.34132C139.392 0.652576 139.648 0.441606 140.365 0.0881958L140.46 0.441662C139.914 0.832373 139.916 0.873681 139.447 1.34491C139.345 1.41535 139.207 1.54141 139.109 1.62496L138.943 1.34132Z" fill="white"/>
<path d="M143.089 3.32874C143.255 3.43777 143.283 3.46336 143.388 3.6306C143.037 4.18879 142.704 4.51667 142.058 4.72142C141.798 4.71156 141.535 4.73021 141.327 4.57832C141.989 4.47025 142.344 4.46542 142.758 3.93997C142.823 3.85906 143.029 3.44594 143.089 3.32874Z" fill="white"/>
</svg>
