<svg width="64" height="65" viewBox="0 0 64 65" fill="none" xmlns="http://www.w3.org/2000/svg">
<g clip-path="url(#clip0_1104_9291)">
<path fill-rule="evenodd" clip-rule="evenodd" d="M32 12.7524C33.8935 12.7524 35.4286 14.2874 35.4286 16.181V32.5255L45.1925 38.3838C46.8164 39.3581 47.3426 41.4641 46.3684 43.0878C45.3943 44.7115 43.2883 45.238 41.6646 44.2638L30.236 37.4066C29.2033 36.787 28.5714 35.671 28.5714 34.4667V16.181C28.5714 14.2874 30.1065 12.7524 32 12.7524Z" fill="#408CFF"/>
<path fill-rule="evenodd" clip-rule="evenodd" d="M27.0516 7.53437C32.8411 6.3692 39.0537 7.22603 44.5696 10.4106C56.593 17.3523 60.7123 32.7266 53.7706 44.7499C46.8289 56.7733 31.4549 60.8926 19.4315 53.9509C7.48889 47.0558 3.34433 31.8412 10.092 19.8544L14.3383 22.4022C15.5274 23.1156 17.0292 23.0426 18.1434 22.217C19.2576 21.3914 19.7648 19.976 19.4285 18.6306L16.8938 8.49218C16.4346 6.65515 14.5731 5.53826 12.7361 5.9975L2.59759 8.53213C1.25227 8.86845 0.242016 9.9821 0.0379121 11.3537C-0.166192 12.7253 0.476051 14.0849 1.66516 14.7983L4.2103 16.3254C-4.51081 31.6073 0.747219 51.0814 16.003 59.8897C31.306 68.7249 50.8742 63.4814 59.7094 48.1786C68.5446 32.8754 63.3011 13.3074 47.9983 4.47218C40.9823 0.42155 33.0614 -0.669745 25.6987 0.81202C23.8424 1.18562 22.6404 2.99332 23.014 4.84966C23.3876 6.70598 25.1953 7.90799 27.0516 7.53437Z" fill="#201E50"/>
</g>
<defs>
<clipPath id="clip0_1104_9291">
<rect width="64" height="64" fill="white" transform="translate(0 0.180969)"/>
</clipPath>
</defs>
</svg>
