<svg width="65" height="65" viewBox="0 0 65 65" fill="none" xmlns="http://www.w3.org/2000/svg">
<path d="M39.3926 19.5445H30.7186C29.3893 19.5454 28.1017 20.0088 27.0767 20.8553C26.0517 21.7018 25.3531 22.8785 25.1009 24.1837C24.8486 25.4889 25.0584 26.8412 25.6941 28.0086C26.3299 29.1761 27.3521 30.0859 28.5853 30.5822L37.3916 34.1064C38.6248 34.6026 39.647 35.5124 40.2828 36.6799C40.9185 37.8474 41.1283 39.1996 40.876 40.5048C40.6238 41.81 39.9252 42.9868 38.9002 43.8332C37.8752 44.6797 36.5876 45.1431 35.2583 45.1441H26.5928" stroke="#408CFF" stroke-width="6" stroke-linecap="round" stroke-linejoin="round"/>
<path d="M32.9927 19.5445V16.3445" stroke="#408CFF" stroke-width="6" stroke-linecap="round" stroke-linejoin="round"/>
<path d="M32.9927 48.344V45.1441" stroke="#408CFF" stroke-width="6" stroke-linecap="round" stroke-linejoin="round"/>
<path d="M61.9938 32.3443C61.9938 48.3605 49.01 61.3443 32.9938 61.3443C16.9775 61.3443 3.99377 48.3605 3.99377 32.3443C3.99377 16.328 16.9775 3.34427 32.9938 3.34427C49.01 3.34427 61.9938 16.328 61.9938 32.3443Z" stroke="#201E50" stroke-width="6" stroke-linecap="round" stroke-linejoin="round"/>
</svg>
