<svg width="64" height="64" viewBox="0 0 64 64" fill="none" xmlns="http://www.w3.org/2000/svg">
<path d="M34.1579 5.94639L41.1671 20.0969C41.3265 20.4561 41.5773 20.7672 41.8944 20.9992C42.2115 21.2313 42.5839 21.3762 42.9745 21.4194L58.4475 23.7117C58.8955 23.7693 59.3179 23.9532 59.6654 24.2418C60.0128 24.5305 60.2709 24.9121 60.4096 25.342C60.5482 25.7718 60.5617 26.2323 60.4485 26.6696C60.3352 27.1069 60.0999 27.5029 59.77 27.8114L48.6171 38.8762C48.3324 39.1421 48.1188 39.475 47.9956 39.8446C47.8724 40.2141 47.8436 40.6086 47.9118 40.9921L50.6008 56.5533C50.6787 57.0005 50.6295 57.4605 50.4588 57.8811C50.2881 58.3016 50.0028 58.6658 49.6353 58.9322C49.2679 59.1986 48.833 59.3565 48.3802 59.388C47.9275 59.4194 47.475 59.3232 47.0742 59.1101L33.144 51.7483C32.7873 51.5732 32.3953 51.4822 31.9979 51.4822C31.6005 51.4822 31.2084 51.5732 30.8517 51.7483L16.9216 59.1101C16.5208 59.3232 16.0683 59.4194 15.6155 59.388C15.1628 59.3565 14.7279 59.1986 14.3605 58.9322C13.993 58.6658 13.7077 58.3016 13.537 57.8811C13.3663 57.4605 13.3171 57.0005 13.395 56.5533L16.084 40.8158C16.1522 40.4323 16.1234 40.0378 16.0002 39.6682C15.877 39.2987 15.6634 38.9658 15.3787 38.6999L4.09353 27.8114C3.75966 27.4944 3.52486 27.0875 3.41758 26.6398C3.31031 26.1921 3.33515 25.7229 3.4891 25.289C3.64305 24.8551 3.91951 24.4752 4.28499 24.1953C4.65046 23.9153 5.08927 23.7474 5.54826 23.7117L21.0213 21.4194C21.4119 21.3762 21.7843 21.2313 22.1014 20.9992C22.4185 20.7672 22.6693 20.4561 22.8287 20.0969L29.8378 5.94639C30.0287 5.53425 30.3335 5.18532 30.7163 4.94079C31.099 4.69625 31.5437 4.56631 31.9979 4.56631C32.4521 4.56631 32.8968 4.69625 33.2795 4.94079C33.6623 5.18532 33.9671 5.53425 34.1579 5.94639Z" stroke="#201E50" stroke-width="6" stroke-linecap="round" stroke-linejoin="round"/>
<path d="M31.3287 28.9509L31.9598 27.6769L32.5909 28.9509C32.8627 29.5277 33.2748 30.0276 33.7901 30.4047C34.3084 30.7839 34.9136 31.0261 35.5496 31.1092L36.9476 31.3164L35.9159 32.3399C35.469 32.771 35.1327 33.304 34.9361 33.8937C34.7342 34.4995 34.6861 35.146 34.7962 35.7749L35.0406 37.1892L33.7787 36.5223C33.7523 36.5084 33.7258 36.4949 33.699 36.4817C33.1577 36.216 32.5628 36.0778 31.9598 36.0778C31.3569 36.0778 30.7619 36.216 30.2206 36.4817C30.1939 36.4949 30.1673 36.5084 30.1409 36.5223L28.87 37.194L29.124 35.7074C29.2333 35.0795 29.1851 34.4342 28.9835 33.8295C28.784 33.2309 28.4404 32.6906 27.9833 32.2561L27.0043 31.3116L28.37 31.1092C29.006 31.0261 29.6112 30.7839 30.1295 30.4047C30.6448 30.0276 31.057 29.5277 31.3287 28.9509Z" stroke="#408CFF" stroke-width="6" stroke-linecap="round" stroke-linejoin="round"/>
</svg>
