<svg width="160" height="161" viewBox="0 0 160 161" fill="none" xmlns="http://www.w3.org/2000/svg">
<path d="M90.9104 23.718C90.9387 23.6019 90.9424 23.4813 90.9211 23.3637C90.8999 23.2462 90.8543 23.1344 90.7872 23.0356C91.5192 22.2876 90.6984 22.0276 90.5472 22.3844C90.5232 22.4068 90.256 22.6596 90.2272 22.6788C90.1167 22.702 90.0188 22.7656 89.9528 22.8572C89.7488 23.002 89.7704 23.4548 89.94 23.7172C90.0177 23.8549 90.1347 23.9663 90.276 24.0372C90.3385 24.0591 90.4049 24.0682 90.471 24.0639C90.5371 24.0596 90.6017 24.042 90.6609 24.0122C90.7201 23.9825 90.7727 23.941 90.8156 23.8905C90.8585 23.8399 90.8907 23.7813 90.9104 23.718Z" fill="#201E50"/>
<path d="M90.2464 21.9876C90.3111 22.0194 90.3835 22.0322 90.4552 22.0244C90.5269 22.0166 90.5949 21.9886 90.6512 21.9436C90.7688 21.8476 90.7544 21.7324 90.7544 21.6044C90.7544 21.2996 90.2 21.0156 89.6432 21.5492C89.3762 21.7397 89.1938 22.0266 89.1344 22.3492C89.1381 22.4326 89.1722 22.5118 89.2302 22.5718C89.2883 22.6318 89.3663 22.6684 89.4496 22.6748C89.5168 22.6728 89.582 22.6513 89.6373 22.613C89.6925 22.5746 89.7354 22.5211 89.7608 22.4588C89.8921 22.2731 90.0568 22.1133 90.2464 21.9876Z" fill="#201E50"/>
<path d="M83.8104 32.7157C83.9065 32.7097 83.9996 32.6798 84.0813 32.6289C84.163 32.5779 84.2307 32.5074 84.2784 32.4237C84.3432 32.336 84.3934 32.2385 84.4272 32.1349C84.6244 32.1793 84.8286 32.1826 85.0272 32.1445C85.412 32.0725 85.2464 31.4629 84.9032 31.4933C84.332 31.5413 84.3152 31.3797 84.0896 31.3709C84.0322 31.3626 83.9738 31.366 83.9177 31.3807C83.8617 31.3954 83.8091 31.4211 83.7632 31.4565C83.2 31.8213 83.2192 32.7157 83.8104 32.7157Z" fill="#201E50"/>
<path d="M132.599 126.752C132.599 126.752 130.386 126.807 129.784 126.825V123.763C129.782 123.689 129.758 123.617 129.716 123.557C129.673 123.496 129.614 123.45 129.546 123.422C129.477 123.395 129.402 123.388 129.329 123.403C129.257 123.418 129.191 123.454 129.138 123.506C129.088 123.528 129.046 123.564 129.016 123.609C128.986 123.655 128.97 123.708 128.97 123.763V126.849C127.69 126.889 126.41 126.94 125.14 127.018C125.09 127.016 125.04 127.024 124.993 127.041C124.947 127.059 124.904 127.085 124.868 127.12C124.831 127.154 124.803 127.196 124.783 127.242C124.763 127.288 124.753 127.337 124.753 127.387C124.753 127.437 124.763 127.487 124.783 127.533C124.803 127.579 124.831 127.62 124.868 127.655C124.904 127.689 124.947 127.716 124.993 127.734C125.04 127.751 125.09 127.759 125.14 127.757C126.332 127.757 127.586 127.747 128.97 127.727V130.158C128.921 130.829 128.942 131.504 129.034 132.171C129.035 132.266 129.074 132.358 129.142 132.425C129.21 132.492 129.302 132.529 129.398 132.529C129.486 132.53 129.572 132.498 129.638 132.439C129.704 132.38 129.745 132.298 129.753 132.209C129.843 131.537 129.862 130.857 129.811 130.181V127.716C130.706 127.701 131.646 127.68 132.666 127.655C132.776 127.634 132.874 127.573 132.942 127.484C133.01 127.395 133.042 127.285 133.034 127.173C133.026 127.062 132.977 126.958 132.897 126.88C132.817 126.802 132.711 126.757 132.599 126.752Z" fill="#201E50"/>
<path d="M143.854 133.241C141.664 133.542 140.35 136.281 142.03 137.968C142.456 138.378 142.984 138.665 143.559 138.8C144.134 138.935 144.735 138.912 145.298 138.733C145.853 138.535 146.324 138.153 146.632 137.65C146.941 137.148 147.068 136.555 146.994 135.971C146.839 134.498 145.777 132.978 143.854 133.241ZM145.348 137.797C144.96 137.98 144.53 138.057 144.102 138.02C143.674 137.983 143.264 137.834 142.912 137.588C141.401 136.561 142.192 134.475 143.809 134.028C145.834 133.468 147.185 136.643 145.348 137.797Z" fill="#201E50"/>
<path d="M97.6208 135.199L94.6304 130.447C94.6034 130.402 94.5679 130.364 94.526 130.333C94.484 130.302 94.4364 130.28 94.3858 130.268C94.3353 130.256 94.2828 130.254 94.2314 130.262C94.1801 130.27 94.1308 130.288 94.0864 130.315C93.968 130.389 93.9696 130.423 93.3368 131.584C92.8232 132.528 91.7976 134.39 90.944 136.144C90.9231 136.193 90.9142 136.246 90.9181 136.299C90.9221 136.352 90.9386 136.403 90.9665 136.448C90.9944 136.493 91.0327 136.531 91.0782 136.558C91.1237 136.585 91.1751 136.601 91.228 136.604C91.5272 136.604 91.5536 136.397 91.6032 136.315C93.541 136.4 95.4815 136.229 97.3744 135.805C97.437 135.791 97.4951 135.762 97.544 135.72C97.5928 135.678 97.631 135.626 97.6551 135.566C97.6793 135.507 97.6888 135.442 97.6828 135.378C97.6768 135.314 97.6556 135.253 97.6208 135.199ZM94.316 131.428L96.6064 135.108C95.1163 135.354 93.608 135.474 92.0976 135.465C92.8392 134.172 93.5336 132.873 94.32 131.428H94.316Z" fill="#201E50"/>
<path d="M21.1688 39.218C21.4936 39.2316 21.8288 39.0628 23.3376 38.9852C23.3304 39.6692 23.328 40.3804 23.332 41.126C23.3296 41.1781 23.3379 41.2301 23.3561 41.2789C23.3744 41.3277 23.4024 41.3723 23.4384 41.41C23.4744 41.4477 23.5177 41.4777 23.5656 41.4981C23.6135 41.5186 23.6651 41.5292 23.7172 41.5292C23.7693 41.5292 23.8209 41.5186 23.8688 41.4981C23.9168 41.4777 23.96 41.4477 23.996 41.41C24.032 41.3723 24.06 41.3277 24.0783 41.2789C24.0966 41.2301 24.1048 41.1781 24.1024 41.126C24.1024 40.4156 24.1024 39.694 24.0968 38.97H24.8112C25.1871 39.0116 25.5665 39.0116 25.9424 38.97C26.0182 38.9599 26.0892 38.9272 26.1462 38.8763C26.2033 38.8254 26.2437 38.7586 26.2624 38.6844C26.2757 38.5979 26.2569 38.5095 26.2097 38.4359C26.1624 38.3622 26.0898 38.3084 26.0056 38.2844C25.6033 38.1846 25.1869 38.1543 24.7744 38.1948H24.088C24.08 37.618 24.0568 37.0412 24.0456 36.4684C24.0365 36.3867 23.9999 36.3105 23.9417 36.2523C23.8836 36.1942 23.8074 36.1576 23.7256 36.1484C23.6444 36.157 23.5684 36.1925 23.5096 36.2491C23.4507 36.3058 23.4125 36.3804 23.4008 36.4612C23.3808 37.0276 23.3648 37.6092 23.3536 38.2108C22.6054 38.263 21.8625 38.3749 21.132 38.5452C21.0714 38.5481 21.0127 38.567 20.9618 38.6001C20.9109 38.6331 20.8697 38.6791 20.8424 38.7332C20.8235 38.7868 20.8174 38.844 20.8246 38.9004C20.8317 38.9567 20.852 39.0106 20.8837 39.0577C20.9154 39.1048 20.9577 39.1439 21.0072 39.1717C21.0568 39.1995 21.1121 39.2154 21.1688 39.218Z" fill="#201E50"/>
<path d="M32.0457 30.0867C32.448 30.3621 32.9175 30.5234 33.4041 30.5534C33.8908 30.5834 34.3765 30.481 34.8097 30.2571C37.0225 29.0931 35.8881 25.5827 33.3201 25.7171C33.219 25.7242 33.1243 25.7694 33.0553 25.8435C33.0289 25.8814 33.0094 25.9237 32.9977 25.9683C31.1633 26.4307 30.4473 28.9411 32.0457 30.0867ZM33.8241 26.5723C33.8816 26.5766 33.9393 26.5766 33.9969 26.5723C35.1593 27.0595 35.6673 28.6395 34.6441 29.4307C33.4217 30.2555 31.5713 29.4363 32.0209 27.9331C32.1343 27.5421 32.3712 27.1982 32.6962 26.953C33.0213 26.7077 33.4169 26.5742 33.8241 26.5723Z" fill="#201E50"/>
<path d="M93.1952 24.9693C93.204 24.9175 93.2024 24.8645 93.1907 24.8132C93.179 24.762 93.1573 24.7136 93.1269 24.6708C93.0965 24.628 93.0579 24.5916 93.0134 24.5636C92.9689 24.5357 92.9194 24.5168 92.8676 24.5081C92.8158 24.4993 92.7628 24.5008 92.7116 24.5125C92.6604 24.5242 92.612 24.5459 92.5691 24.5763C92.5263 24.6068 92.4899 24.6453 92.462 24.6898C92.4341 24.7343 92.4152 24.7839 92.4064 24.8357C92.3817 24.955 92.3269 25.066 92.2472 25.1581C92.1674 25.2502 92.0655 25.3204 91.9509 25.3619C91.8364 25.4035 91.7131 25.415 91.5929 25.3954C91.4727 25.3758 91.3594 25.3258 91.264 25.2501C91.1759 25.1946 91.0697 25.1757 90.9679 25.1973C90.8661 25.2188 90.7767 25.2793 90.7187 25.3657C90.6607 25.4521 90.6387 25.5577 90.6573 25.6601C90.6759 25.7625 90.7337 25.8536 90.8184 25.9141C91.0248 26.0645 91.2659 26.1601 91.5193 26.1921C91.7727 26.2241 92.03 26.1915 92.2673 26.0971C92.5047 26.0028 92.7142 25.8499 92.8765 25.6526C93.0387 25.4554 93.1484 25.2203 93.1952 24.9693Z" fill="#201E50"/>
<path d="M148.858 78.5284C143.974 68.8292 136.66 60.714 129.171 55.77C133.856 51.006 148.194 35.7484 148.974 29.102C148.98 29.0492 148.975 28.9958 148.961 28.9447C148.946 28.8936 148.921 28.846 148.888 28.8046C148.855 28.7632 148.814 28.7288 148.767 28.7035C148.72 28.6782 148.669 28.6625 148.616 28.6572C141.548 27.9692 122.072 39.4572 116.004 43.1828C115.493 42.2849 114.861 41.4614 114.126 40.7356C113.592 40.1443 112.902 39.7151 112.135 39.4972C112.109 39.4891 112.082 39.4853 112.055 39.486C111.144 39.4838 110.254 39.7595 109.503 40.2764C107.859 41.0989 106.355 42.1756 105.046 43.4668C104.863 41.2108 103.014 40.7468 101.944 39.5308C101.428 38.8009 101.162 37.9235 101.186 37.03C101.095 36.0387 100.829 35.0714 100.402 34.1724C107.09 29.4012 110.149 26.1028 113.297 21.3228C113.688 20.8554 113.958 20.2983 114.081 19.7012C114.706 19.4428 115.311 19.1388 115.892 18.7916C116.115 18.6621 116.299 18.4756 116.427 18.2512C116.554 18.0268 116.619 17.7727 116.615 17.5148C116.611 17.257 116.539 17.0048 116.405 16.7842C116.272 16.5636 116.082 16.3825 115.855 16.2596C116.349 15.8068 116.858 15.2996 116.895 15.2596C118.08 14.0164 116.515 12.3244 114.957 13.6964L111.962 16.3292C110.972 16.102 110.522 16.9692 110.136 17.3188C109.212 18.0751 108.231 18.7578 107.2 19.3604C103.776 21.4868 104.486 21.2148 96.6496 25.7716C95.912 26.2004 95.1664 26.6348 94.4512 27.0604C94.0356 27.0029 93.6137 27.0091 93.2 27.0788C93.6111 26.858 93.96 26.5372 94.2144 26.146C94.301 25.9898 94.3531 25.8169 94.3672 25.6388C95.0976 20.9276 92.5408 16.8804 88.8208 16.8804C87.9542 16.8437 87.0904 17.0032 86.2941 17.347C85.4977 17.6908 84.7893 18.2101 84.2216 18.866C83.2824 20.214 83.2976 21.9012 82.4152 23.4316C82.1991 23.8191 81.8937 24.1495 81.5243 24.3952C81.1549 24.6409 80.7321 24.7949 80.2912 24.8444C80.2512 24.8484 80.2392 24.8708 80.2912 24.9244C80.3364 24.9771 80.3736 25.0361 80.4016 25.0996C79.8465 25.2406 79.3035 25.4254 78.7776 25.6524C78.0432 26.0678 77.359 26.5663 76.7384 27.138C76.1233 27.5192 75.4107 27.7137 74.6872 27.698C73.5309 27.594 72.3655 27.6687 71.232 27.9196C70.012 28.326 68.944 29.6628 69.3864 30.9924C69.4795 31.1696 69.5502 31.3577 69.5968 31.5524C69.585 31.7013 69.5373 31.8451 69.4579 31.9716C69.3785 32.098 69.2698 32.2034 69.1408 32.2788C68.7353 32.6039 68.259 32.8293 67.7505 32.9367C67.2419 33.0441 66.7152 33.0306 66.2128 32.8972C64.7843 32.7102 63.3359 32.7344 61.9144 32.9692C60.2805 33.1994 58.7337 33.8478 57.424 34.8516C57.0915 35.0857 56.8118 35.3871 56.6032 35.7361C56.3945 36.0852 56.2615 36.4742 56.2128 36.878C56.2096 36.9097 56.2096 36.9416 56.2128 36.9732C56.3105 37.7975 56.6907 38.5625 57.2888 39.138C58.0565 40.0739 58.7663 41.0557 59.4144 42.078C59.5293 42.3132 59.6274 42.5562 59.708 42.8052C37.5032 48.2948 20.0432 65.8324 14.048 85.9764C13.9208 86.3972 14.5736 86.5652 14.6968 86.1732C17.9974 75.8176 23.8767 66.4712 31.7822 59.0123C39.6877 51.5533 49.3598 46.2268 59.8896 43.5332C60.0188 44.2519 60.0114 44.9884 59.868 45.7044C59.8176 46.4236 59.6475 47.1292 59.3648 47.7924C58.9648 48.7348 57.7648 49.5756 56.9536 48.9404C56.54 48.5612 56.6272 47.8004 56.768 47.106C56.7853 47.0161 56.7712 46.9231 56.7282 46.8423C56.6851 46.7616 56.6157 46.6981 56.5315 46.6623C56.4473 46.6266 56.3533 46.6208 56.2654 46.6459C56.1774 46.671 56.1007 46.7256 56.048 46.8004C55.5218 47.5665 55.2493 48.4784 55.2688 49.4076C55.3291 49.8796 55.4755 50.3365 55.7008 50.7556C39.3448 57.0436 25.5408 71.0404 19.3544 86.2572C17.9616 86.0692 14.5152 85.87 12.0144 87.9444C9.84483 89.8396 9.20003 92.838 8.85523 95.5212C8.36723 99.2132 8.93523 101.841 10.584 103.521C9.44174 103.622 8.34816 104.03 7.42003 104.704C6.27249 105.59 5.34311 106.728 4.70306 108.029C4.06301 109.33 3.72928 110.761 3.72742 112.211C3.72557 113.661 4.05565 115.092 4.69237 116.395C5.32909 117.698 6.25556 118.838 7.40083 119.728C8.8862 120.864 10.6653 121.553 12.5288 121.712C11.7761 122.455 11.1858 123.346 10.7954 124.329C10.405 125.311 10.2229 126.364 10.2608 127.421C10.3555 129.281 11.1449 131.038 12.4727 132.343C13.8005 133.649 15.57 134.409 17.4312 134.472C16.396 136.29 17.0176 138.69 18.0584 140.48C19.9693 143.552 22.8726 145.879 26.2873 147.076C29.702 148.272 33.423 148.266 36.8336 147.058C37.7616 146.705 40.3648 145.538 41.4736 143.218C42.2462 144.763 43.578 145.956 45.1984 146.554C50.1171 148.258 55.5046 147.992 60.2312 145.811C62.2608 144.897 64.676 143.551 65.3512 141.234C65.4845 140.721 65.5077 140.186 65.4192 139.663C65.3306 139.14 65.1325 138.642 64.8376 138.202C68.164 137.882 71.104 135.156 70.6424 131.716C70.5016 130.679 70.0989 129.695 69.4722 128.857C68.8456 128.019 68.0157 127.354 67.0608 126.925C64.6328 125.892 62.328 127.107 60.3328 128.272C59.1577 128.977 57.8719 129.479 56.5296 129.756C54.9456 130.042 52.9032 129.861 53.5392 128.373C53.88 127.248 55.0872 126.718 55.9032 125.796C56.2621 125.408 56.5038 124.927 56.6005 124.407C56.6972 123.888 56.6449 123.351 56.4496 122.86C56.2264 122.346 55.8959 121.884 55.4802 121.507C55.0646 121.13 54.5733 120.846 54.0392 120.674C53.5051 120.502 52.9404 120.445 52.3828 120.509C51.8252 120.572 51.2875 120.754 50.8056 121.041C49.7284 121.636 48.7855 122.447 48.036 123.423C47.5718 123.903 47.0218 124.293 46.4144 124.571C45.7088 124.906 44.8144 125.228 44.5128 124.744C44.3891 124.472 44.3406 124.172 44.3724 123.875C44.4042 123.578 44.5152 123.295 44.6936 123.056C46.5112 120.002 49.5976 117.536 52.7136 115.802C52.7411 115.783 52.7658 115.76 52.7872 115.735C54.2657 115.962 55.7784 115.756 57.1424 115.142L60.9656 119.035C61.0137 119.094 61.0748 119.142 61.1442 119.174C61.2136 119.206 61.2895 119.222 61.366 119.22C61.4424 119.218 61.5174 119.198 61.585 119.162C61.6527 119.127 61.7112 119.076 61.756 119.014C65.3224 113.644 69.4296 108.603 73.2952 103.393L74.9016 102.165C74.9159 102.287 74.9595 102.403 75.0286 102.504C75.0977 102.605 75.1903 102.687 75.2985 102.745C75.4066 102.802 75.527 102.832 75.6494 102.832C75.7717 102.833 75.8923 102.803 76.0008 102.747C76.2344 102.638 76.604 102.412 77.1304 101.196C77.3523 100.793 77.5614 100.384 77.7576 99.9676C79.4232 98.6823 81.0499 97.4199 82.6376 96.1804C82.3928 97.2668 82.1064 98.2844 81.9488 99.4604C81.9006 99.6361 81.8889 99.8197 81.9143 100C81.9398 100.18 82.0019 100.354 82.0968 100.509C82.1642 100.584 82.2473 100.644 82.3402 100.683C82.4331 100.723 82.5336 100.741 82.6344 100.737C83.08 100.737 83.4008 100.485 83.828 99.6684C84.6067 98.3304 85.2481 96.9171 85.7424 95.45C85.9736 95.6012 86.1264 95.4708 86.3496 95.3436C88.0224 94.3924 87.4448 93.9436 86.8656 92.878C95.8328 85.774 103.506 79.378 110.073 73.6364C120.723 80.1244 128.439 96.0684 131.382 108.295C132.269 112.118 132.808 116.014 132.992 119.934C132.986 119.984 132.99 120.035 133.004 120.083C133.019 120.131 133.043 120.175 133.076 120.214C133.109 120.252 133.149 120.283 133.194 120.304C133.24 120.326 133.289 120.337 133.339 120.339C133.39 120.34 133.44 120.331 133.486 120.311C133.533 120.292 133.574 120.263 133.609 120.227C133.644 120.19 133.67 120.147 133.687 120.1C133.704 120.052 133.71 120.002 133.706 119.952C133.647 116.446 133.225 112.956 132.446 109.538C131.625 105.823 130.515 102.178 129.126 98.6364C126.574 91.7678 122.864 85.3868 118.158 79.77C116.006 77.1744 113.432 74.9595 110.544 73.218C112.784 71.2548 114.895 69.3676 116.878 67.5564C119.52 69.5138 121.973 71.7149 124.203 74.1308C133.553 84.8499 139.424 98.1569 141.04 112.288C141.114 113.042 141.186 113.794 141.28 114.516C141.28 114.609 141.317 114.698 141.382 114.763C141.448 114.828 141.536 114.865 141.629 114.865C141.721 114.865 141.81 114.828 141.875 114.763C141.941 114.698 141.978 114.609 141.978 114.516C141.968 112.835 141.816 111.157 141.522 109.502C139.499 96.6166 133.999 84.5274 125.613 74.5372C123.243 71.6717 120.464 69.1703 117.366 67.1132C119.275 65.366 121.071 63.6889 122.754 62.082C126.788 65.1204 130.439 68.637 133.626 72.5548C142.387 83.2628 147.853 96.5844 149.038 112.059C149.038 112.111 149.047 112.162 149.067 112.21C149.086 112.258 149.115 112.302 149.152 112.339C149.189 112.375 149.233 112.404 149.281 112.423C149.329 112.443 149.381 112.452 149.433 112.451C149.485 112.45 149.536 112.438 149.583 112.416C149.63 112.395 149.673 112.364 149.708 112.326C149.743 112.288 149.77 112.243 149.787 112.194C149.805 112.145 149.812 112.093 149.809 112.041C148.708 94.5788 141.218 77.9164 128.658 66.0284C126.982 64.4058 125.173 62.9275 123.249 61.6092C125.202 59.7372 127.011 57.9583 128.676 56.2724C141.746 65.4252 151.25 80.022 154.422 97.91C154.97 100.99 155.23 104.117 155.518 107.196C155.519 107.246 155.529 107.296 155.548 107.341C155.567 107.387 155.596 107.429 155.631 107.464C155.667 107.499 155.709 107.526 155.755 107.544C155.802 107.563 155.851 107.572 155.901 107.571C155.951 107.572 156.001 107.563 156.047 107.544C156.093 107.525 156.135 107.496 156.17 107.46C156.205 107.425 156.232 107.382 156.25 107.335C156.267 107.288 156.275 107.238 156.273 107.188C155.852 97.2188 153.325 87.4512 148.858 78.5284ZM129.385 36.4836C141.163 30.3868 146.544 29.5636 148.066 29.4636C147.628 30.9316 145.614 36.0236 136.946 46.0948C134.707 45.7385 132.685 44.5511 131.284 42.7694C129.882 40.9878 129.204 38.7432 129.385 36.4836ZM104.96 44.6668C104.973 44.6081 104.985 44.5497 104.996 44.4916C106.239 43.3025 107.603 42.2468 109.066 41.342C109.82 40.8507 110.642 40.4698 111.504 40.2108C112.29 40.058 113.016 40.6588 113.682 41.3308C115.898 43.4844 116.734 46.67 117.398 49.7484C117.718 51.2372 118.628 55.6684 118.628 55.6684C117.974 55.5933 117.312 55.6871 116.704 55.9407C116.097 56.1943 115.565 56.5994 115.158 57.1172C114.096 54.926 110.924 48.0772 109.798 45.7452C109.767 45.6812 109.719 45.627 109.659 45.5885C109.6 45.55 109.53 45.5286 109.459 45.5267C109.388 45.5248 109.318 45.5425 109.256 45.5777C109.194 45.613 109.143 45.6646 109.109 45.7268C109.071 45.784 109.05 45.8503 109.046 45.9187C109.043 45.9871 109.058 46.0551 109.09 46.1156C109.267 46.482 109.443 46.8487 109.618 47.2156C108.455 47.9697 107.258 48.7564 106.027 49.5756C105.556 48.2885 104.888 47.0823 104.046 46.0004C104.289 45.8607 104.497 45.6683 104.655 45.4375C104.813 45.2067 104.917 44.9433 104.96 44.6668ZM104.84 64.3916C104.425 63.711 104.059 63.0014 103.745 62.2684C103.317 61.4764 104.465 63.0404 98.1616 52.4892C98.1259 52.4287 98.0741 52.3793 98.0119 52.3465C97.9498 52.3138 97.8797 52.2989 97.8096 52.3036C97.7418 52.3052 97.6756 52.3243 97.6175 52.3592C97.5593 52.394 97.5112 52.4434 97.4779 52.5025C97.4446 52.5615 97.4272 52.6282 97.4274 52.696C97.4277 52.7638 97.4455 52.8304 97.4792 52.8892L98.5104 54.694C96.9672 55.7636 95.368 56.8908 93.7336 58.0596C91.9144 58.1396 90.6896 56.77 90.252 55.0108C90.1725 54.7004 90.1106 54.3858 90.0664 54.0684C90.0656 53.8894 90.0536 53.7107 90.0304 53.5332C90.5275 53.5045 91.0169 53.3979 91.4808 53.2172C92.0078 52.8286 92.4998 52.3946 92.9512 51.9204C93.8309 50.1433 94.9811 48.5135 96.3608 47.0892C97.8864 45.53 99.6752 43.9476 101.635 44.9292C103.083 45.6436 104.259 47.1596 105.229 49.5644C106.742 53.6241 107.993 57.7766 108.974 61.9964C107.395 61.6796 105.679 63.022 104.84 64.3916ZM97.968 52.6172L97.9512 52.5876C97.9576 52.597 97.9632 52.6069 97.968 52.6172ZM91.6984 61.5924C92.1013 62.1024 92.4062 62.6826 92.5976 63.3036C92.6154 63.4124 92.5915 63.5238 92.5309 63.6158C92.4703 63.7079 92.3773 63.7737 92.2704 63.8004C92.1688 63.8268 92.0232 63.83 91.9424 63.5604C91.7297 62.9508 91.4818 62.3541 91.2 61.7732C91.1548 61.6772 91.0734 61.6031 90.9735 61.5671C90.8737 61.5312 90.7636 61.5364 90.6676 61.5816C90.5716 61.6268 90.4975 61.7083 90.4616 61.8081C90.4256 61.908 90.4308 62.018 90.476 62.114C90.48 62.1228 90.8808 62.994 91.076 63.554C91.1203 63.6438 91.1276 63.7474 91.0964 63.8426C91.0651 63.9377 90.9978 64.0168 90.9088 64.0628C90.7104 64.1476 90.5728 63.9124 90.5232 63.8092C90.2584 63.254 89.848 62.5708 89.8304 62.542C89.7942 62.4821 89.743 62.4328 89.6818 62.3989C89.6206 62.365 89.5516 62.3478 89.4816 62.349C89.4117 62.3501 89.3432 62.3695 89.2832 62.4054C89.2231 62.4412 89.1735 62.4922 89.1392 62.5532C88.8623 62.9765 88.4681 63.3101 88.0048 63.5132C87.925 63.5603 87.8341 63.5855 87.7414 63.5862C87.6486 63.5869 87.5574 63.5631 87.4768 63.5172C87.3784 63.422 87.3017 63.3066 87.2519 63.1791C87.202 63.0515 87.1803 62.9147 87.188 62.778C87.1968 62.75 87.2048 62.7212 87.212 62.6932C89.7024 60.246 89.7376 60.2268 89.8016 60.1444C90.4297 59.7685 91.1704 59.6268 91.8928 59.7444C92.6192 59.9452 93.464 61.2316 93.7944 62.0828C93.8167 62.1697 93.8061 62.2619 93.7646 62.3415C93.7231 62.421 93.6537 62.4825 93.5696 62.514C93.508 62.5404 93.34 62.6116 93.1936 62.298C93.14 62.1812 92.6504 61.1524 92.1472 60.9692C92.0656 60.9403 91.9769 60.9387 91.8943 60.9645C91.8117 60.9904 91.7397 61.0423 91.6891 61.1125C91.6386 61.1828 91.6121 61.2675 91.6138 61.354C91.6155 61.4405 91.6452 61.5242 91.6984 61.5924ZM83.1776 92.1692C83.1776 92.1692 82.652 91.0964 82.468 90.742C83.4064 90.4572 83.7032 89.854 84.1224 88.9924C84.4048 89.7052 84.7192 90.41 85.06 91.0948C84.884 91.942 84.3552 93.8644 83.712 94.4436C83.7755 93.6483 83.5886 92.853 83.1776 92.1692ZM73.664 73.8844C73.6419 73.8368 73.6293 73.7852 73.627 73.7327C73.6248 73.6802 73.6329 73.6278 73.6509 73.5784C73.6689 73.5291 73.6965 73.4837 73.732 73.445C73.7676 73.4063 73.8104 73.375 73.858 73.3528C73.9057 73.3306 73.9572 73.3181 74.0097 73.3158C74.0622 73.3136 74.1146 73.3217 74.164 73.3397C74.2134 73.3577 74.2587 73.3853 74.2974 73.4208C74.3361 73.4564 74.3675 73.4992 74.3896 73.5468C75.8928 76.774 82.5944 82.9796 87.6992 84.2436C87.8022 84.2691 87.8909 84.3344 87.9457 84.4253C88.0006 84.5161 88.0171 84.625 87.9916 84.728C87.9662 84.831 87.9008 84.9197 87.81 84.9745C87.7191 85.0294 87.6102 85.0459 87.5072 85.0204C82.2008 83.706 75.2296 77.2452 73.664 73.8844ZM76.024 94.018C76.7904 93.6932 77.0888 92.8596 77.5624 92.1396C77.7448 92.6012 77.9456 93.0564 78.1632 93.4996C78.0026 94.2015 77.7464 94.8779 77.4016 95.51C77.211 95.8952 76.9688 96.2526 76.6816 96.5724C76.7405 95.6726 76.5101 94.7775 76.024 94.018ZM64.824 79.9652C62.5339 81.7876 60.2139 83.6529 57.864 85.5612C51.3348 86.7331 44.9023 88.3911 38.62 90.5212C38.213 90.597 37.8367 90.7893 37.5368 91.0748C36.9768 91.7764 37.6112 92.5756 37.9912 93.0524C38.1832 93.2924 38.052 93.1268 42.3512 99.0276C42.3934 99.0865 42.448 99.1354 42.5112 99.1708C41.7383 100.737 41.5401 102.526 41.9512 104.224C40.0941 106.39 37.7214 108.053 35.052 109.061C32.6232 109.98 28.324 111.093 26.8248 108.231C26.0024 106.644 27.3176 105.419 28.176 104.828C29.2552 104.082 30.512 103.451 31.1512 102.188C31.9632 100.656 31.0344 98.726 28.7856 98.4364C31.3403 91.0316 35.4913 84.2789 40.945 78.6562C46.3986 73.0335 53.0215 68.6783 60.3448 65.8988C62.8656 64.9315 65.5007 64.294 68.1848 64.002C67.2144 66.502 66.4848 69.0836 65.6496 71.6236C65.0739 73.2601 64.7016 74.9611 64.5408 76.6884C64.478 77.7876 64.5739 78.8902 64.8256 79.962L64.824 79.9652ZM56.452 86.706C52.5488 89.8836 48.48 93.0748 44.5096 96.574C43.9363 97.0852 43.4326 97.6694 43.0112 98.3116C43.0112 98.3116 38.5888 92.2228 38.5024 92.0924C38.416 91.962 38.3368 91.6588 38.4848 91.5996C39.0812 91.3602 39.691 91.1559 40.3112 90.9876C45.44 89.4796 46.9928 88.8052 56.4536 86.7028L56.452 86.706ZM52.588 68.714C41.0658 75.2053 32.3566 85.7347 28.1416 98.27C28.1254 98.3163 28.1232 98.3664 28.1352 98.414C26.9575 98.5794 25.8452 99.0558 24.9128 99.794C24.3528 100.194 23.6328 100.889 22.9928 100.754C22.16 100.572 22.6224 99.4116 23.024 98.9444C23.504 98.3884 24.0888 97.8964 24.5824 97.3292C26.952 94.6356 28.0224 91.4324 25.5056 88.8724C29.6268 80.278 35.665 72.7438 43.1554 66.8496C50.6458 60.9554 59.3887 56.8585 68.7112 54.874C68.7532 55.1632 68.7698 55.4555 68.7608 55.7476C68.7376 56.9164 68.8176 57.6228 69.9168 57.8836C69.9544 59.7236 69.1832 61.498 68.4872 63.2332C62.86 63.913 57.4413 65.7801 52.5896 68.7108L52.588 68.714ZM69.4984 48.4268C70.2492 48.4071 70.9988 48.4993 71.7224 48.7004C71.8824 48.7612 71.8712 48.81 71.8608 48.854C71.8388 48.9301 71.7966 48.9988 71.7388 49.0529C71.6809 49.107 71.6094 49.1444 71.532 49.1612C71.4797 49.1542 71.4265 49.1578 71.3756 49.1719C71.3247 49.1859 71.2772 49.2101 71.2359 49.243C71.1945 49.2759 71.1603 49.3167 71.1352 49.3632C71.11 49.4096 71.0945 49.4606 71.0896 49.5132C71.0777 49.6185 71.1081 49.7243 71.1741 49.8072C71.2401 49.8902 71.3363 49.9436 71.4416 49.9556C71.8992 50.0084 72.1232 50.1724 72.1752 50.2972C72.186 50.3205 72.1896 50.3465 72.1857 50.3718C72.1817 50.3972 72.1702 50.4208 72.1528 50.4396C72.0623 50.516 71.9542 50.5686 71.8383 50.5927C71.7224 50.6169 71.6023 50.6118 71.4888 50.578C71.3886 50.5629 71.2864 50.5864 71.2028 50.6437C71.1192 50.701 71.0605 50.788 71.0386 50.8869C71.0166 50.9859 71.0331 51.0895 71.0846 51.1768C71.1361 51.2641 71.2188 51.3286 71.316 51.3572C71.4704 51.402 71.5432 51.446 71.5712 51.45C71.4806 51.5458 71.3717 51.6225 71.2509 51.6754C71.1301 51.7283 70.9999 51.7564 70.868 51.758C69.9883 51.8536 69.1033 51.6339 68.3704 51.138C66.8696 49.7612 68.8728 46.6732 69.4528 46.5052C69.4208 46.7452 69.3944 46.9964 69.368 47.2412C69.3536 47.3164 69.3416 47.3916 69.3312 47.4668C69.2841 47.5824 69.2277 47.694 69.1624 47.8004C69.1209 47.8609 69.0968 47.9317 69.0927 48.005C69.0887 48.0783 69.105 48.1512 69.1397 48.2159C69.1744 48.2806 69.2262 48.3345 69.2895 48.3717C69.3527 48.4089 69.425 48.428 69.4984 48.4268ZM69.4944 54.978C69.4568 54.1532 69.4696 53.3388 69.4648 52.4548C69.9319 52.5342 70.4055 52.5687 70.8792 52.558C71.6424 52.5468 72.5432 51.9644 72.3584 51.2604C72.5365 51.1906 72.6906 51.0706 72.8018 50.9149C72.9131 50.7593 72.9768 50.5747 72.9853 50.3836C72.9938 50.1925 72.9466 50.003 72.8495 49.8381C72.7525 49.6733 72.6097 49.5401 72.4384 49.4548C72.541 49.3374 72.6124 49.1961 72.6461 49.0439C72.6797 48.8917 72.6746 48.7335 72.6311 48.5838C72.5876 48.4341 72.5071 48.2977 72.3971 48.1872C72.2871 48.0768 72.1511 47.9957 72.0016 47.9516C71.392 47.7606 70.7587 47.6558 70.12 47.6404C70.3472 47.0436 70.5296 46.318 70.04 45.8932C70.3008 44.35 70.2752 44.7492 70.3696 44.1188C70.9091 43.9596 71.4279 43.7373 71.9152 43.4564C73.0747 46.9428 74.5714 50.3078 76.384 53.5036C77.1372 54.6368 77.9713 55.714 78.88 56.7268C76.24 57.33 74.4448 57.7948 71.44 57.3668C71.0056 57.298 69.852 57.2148 69.652 56.8404C69.448 56.122 69.632 55.7092 69.4944 54.978ZM70.0344 63.138C70.0831 63.0437 70.1673 62.9726 70.2684 62.9403C70.3695 62.9081 70.4793 62.9173 70.5736 62.966C70.6679 63.0147 70.739 63.0989 70.7713 63.2C70.8036 63.3011 70.7943 63.4109 70.7456 63.5052C69.4104 66.0884 68.5056 69.5444 71.3752 69.122C73.9944 68.7364 78.5816 62.638 79.8168 60.1676C79.8642 60.0727 79.9474 60.0004 80.0481 59.9668C80.1488 59.9332 80.2587 59.941 80.3536 59.9884C80.4486 60.0358 80.5208 60.119 80.5544 60.2197C80.588 60.3204 80.5802 60.4303 80.5328 60.5252C79.52 62.5484 74.72 69.4356 71.4912 69.9108C71.066 70.0194 70.6187 70.0052 70.2013 69.8699C69.7838 69.7345 69.4134 69.4835 69.1328 69.146C68.32 68.0076 68.6488 65.8172 70.0344 63.138ZM70.2672 77.0996C70.3475 77.0318 70.4513 76.9983 70.5561 77.0064C70.6609 77.0145 70.7583 77.0635 70.8272 77.1428C72.9432 79.6116 74.9288 86.554 75.4912 90.4084C75.5005 90.4611 75.4992 90.5151 75.4872 90.5673C75.4753 90.6195 75.453 90.6687 75.4217 90.7121C75.3903 90.7555 75.3506 90.7921 75.3049 90.8199C75.2591 90.8477 75.2083 90.866 75.1553 90.8737C75.1024 90.8815 75.0484 90.8786 74.9966 90.8651C74.9449 90.8516 74.8963 90.8279 74.8538 90.7953C74.8114 90.7628 74.7759 90.722 74.7495 90.6755C74.7231 90.6289 74.7062 90.5776 74.7 90.5244C74.0656 86.1804 72.0144 79.7572 70.22 77.6636C70.1857 77.6234 70.1597 77.5768 70.1435 77.5265C70.1272 77.4762 70.1211 77.4232 70.1255 77.3706C70.1299 77.3179 70.1447 77.2666 70.169 77.2197C70.1933 77.1728 70.2267 77.1312 70.2672 77.0972V77.0996ZM72.5872 43.0196C73.584 42.2828 73.856 41.19 74.452 39.9668C74.8919 38.8973 75.6363 37.9807 76.5928 37.3308C76.7999 38.3025 77.2928 39.1901 78.008 39.8796C78.5912 41.05 81.1952 47.4116 83.0984 51.0572C83.1912 51.3108 84.6232 53.898 85.84 55.8324C86.7521 57.2515 87.7841 58.5897 88.9248 59.8324C88.8024 60.0348 89.2352 59.5844 87.068 61.6812C86.9462 61.8371 86.8075 61.9791 86.6544 62.1044C78.3128 57.194 75.488 50.8564 72.5856 43.0172L72.5872 43.0196ZM79.7656 35.7396C79.8752 35.6412 80.8312 34.75 80.748 33.8764C80.7438 33.6924 80.728 33.5088 80.7008 33.3268C80.7979 33.2648 80.9097 33.2297 81.0248 33.2252C81.3469 33.1632 81.6487 33.0225 81.9033 32.8156C82.1579 32.6088 82.3574 32.3422 82.484 32.0396C82.648 31.6396 82.5712 30.9892 82.724 30.8396C82.9645 30.674 83.26 30.6083 83.548 30.6564C84.1234 30.6419 84.691 30.5201 85.2216 30.2972C85.4038 30.7719 85.5276 31.267 85.5904 31.7716C85.5137 32.1499 85.5305 32.5413 85.6392 32.9117C85.748 33.2821 85.9454 33.6204 86.2144 33.8972C86.1928 33.9452 85.9928 34.0684 85.6312 33.906C85.5723 33.8801 85.508 33.8689 85.4438 33.8731C85.3796 33.8774 85.3174 33.8971 85.2625 33.9306C85.2075 33.964 85.1614 34.0102 85.1281 34.0653C85.0948 34.1203 85.0753 34.1826 85.0712 34.2468C84.9096 34.667 84.7017 35.0679 84.4512 35.442C84.2722 35.3666 84.1183 35.2418 84.0077 35.0821C83.897 34.9224 83.8341 34.7345 83.8264 34.5404C83.8135 34.4351 83.7592 34.3392 83.6756 34.2738C83.5919 34.2085 83.4858 34.1791 83.3804 34.192C83.2751 34.205 83.1792 34.2592 83.1139 34.3429C83.0485 34.4265 83.0191 34.5327 83.032 34.638C83.0548 34.9258 83.1447 35.2043 83.2945 35.4512C83.4442 35.698 83.6497 35.9064 83.8944 36.0596C83.6052 36.2797 83.271 36.4333 82.9156 36.5095C82.5603 36.5857 82.1925 36.5826 81.8384 36.5004C81.7616 36.4917 81.6838 36.4985 81.6097 36.5204C81.5356 36.5423 81.4666 36.5789 81.4069 36.628C81.3472 36.6772 81.298 36.7378 81.2622 36.8063C81.2264 36.8748 81.2047 36.9498 81.1984 37.0268C81.0876 37.1961 80.9338 37.3329 80.7528 37.4231C80.5717 37.5134 80.3699 37.5539 80.168 37.5404C79.6845 37.3923 79.2465 37.1238 78.8952 36.7599C78.544 36.3961 78.291 35.9489 78.16 35.4604C78.1535 35.4365 78.145 35.4132 78.1344 35.3908C78.4069 34.847 78.6176 34.2744 78.7624 33.6836C78.8066 33.7992 78.8601 33.9111 78.9224 34.018C79.0657 34.2078 79.1577 34.4313 79.1896 34.6669C79.2216 34.9026 79.1924 35.1425 79.1048 35.3636C79.0884 35.4459 79.0984 35.5313 79.1332 35.6077C79.1681 35.6841 79.226 35.7475 79.299 35.7891C79.3719 35.8307 79.456 35.8483 79.5395 35.8394C79.6229 35.8305 79.7015 35.7956 79.764 35.7396H79.7656ZM83.116 49.3444C81.2008 45.4004 79.7768 41.9604 78.8648 40.0404L79.9352 38.7516C80.0221 39.1383 80.0804 39.5308 80.1096 39.926C80.1156 40.028 80.1603 40.1239 80.2347 40.194C80.3091 40.264 80.4074 40.303 80.5096 40.3028C81.0325 40.2817 81.5328 40.0837 81.9284 39.7411C82.324 39.3985 82.5916 38.9317 82.6872 38.4172C83.2968 39.662 84.5368 42.2804 84.868 43.1972C86.336 47.2516 83.7448 46.5492 83.1144 49.3444H83.116ZM85.56 46.978C85.88 47.9596 85.708 47.39 86.5264 49.794C85.8365 49.2803 85.2057 48.6917 84.6456 48.0388C84.9989 47.7301 85.3067 47.3729 85.56 46.978ZM80.64 38.2964C81.0249 38.2153 81.3758 38.0185 81.6456 37.7324C81.672 37.7468 81.9656 37.8612 81.992 37.8724C81.7904 38.986 81.232 39.3412 80.8624 39.4532C80.8168 39.0627 80.7425 38.676 80.64 38.2964ZM82.8128 37.3324C83.6569 37.2229 84.4238 36.7852 84.9472 36.114C85.2503 35.6909 85.5087 35.2376 85.7184 34.7612C86.2784 34.858 86.044 34.5212 85.9296 35.4564C85.9357 35.7428 85.9798 36.0272 86.0608 36.302C86.1483 36.5488 86.18 36.8119 86.1536 37.0724C86.0903 37.2539 85.9786 37.4146 85.8305 37.5371C85.6825 37.6597 85.5037 37.7394 85.3136 37.7676C84.4573 37.8447 83.5958 37.6946 82.816 37.3324H82.8128ZM78.7256 32.342C78.664 32.5106 78.6299 32.6881 78.6248 32.8676C78.4434 32.7432 78.2956 32.5759 78.1947 32.3804C78.0937 32.185 78.0428 31.9675 78.0464 31.7476C77.9664 30.6356 78.9848 30.3604 79.0064 31.0476C79.0145 31.4947 78.9195 31.9376 78.7288 32.342H78.7256ZM79.4064 38.1316L78.492 39.2308C78.1342 38.8849 77.8482 38.4717 77.6505 38.0149C77.4529 37.5582 77.3473 37.0669 77.34 36.5692C77.4304 36.462 77.5168 36.354 77.5992 36.2428C77.9481 37.0748 78.5932 37.7478 79.4096 38.1316H79.4064ZM92.344 59.058C91.8782 58.9154 91.388 58.8702 90.9039 58.9252C90.4199 58.9803 89.9523 59.1344 89.5304 59.378C87.2144 56.7753 85.2811 53.8558 83.7888 50.7076C83.7773 50.232 83.8162 49.7566 83.9048 49.2892C83.984 49.05 84.0894 48.8203 84.2192 48.6044C84.9704 49.5118 85.8655 50.2896 86.8688 50.9068C86.8842 50.9159 86.9003 50.9239 86.9168 50.9308C87.0904 51.6604 87.4382 52.337 87.9304 52.9028C88.3077 53.2355 88.7773 53.4456 89.2768 53.5052C89.2603 53.7489 89.2784 53.9937 89.3304 54.2324C89.5608 56.3468 90.6904 58.306 92.7856 58.7436L92.344 59.058ZM115.49 14.2972C116.266 13.6148 116.812 14.194 116.322 14.7068C116.312 14.7172 115.288 15.7388 114.767 16.1468C114.703 16.197 114.657 16.2653 114.633 16.3428C114.609 16.4202 114.609 16.5031 114.633 16.5805C114.657 16.6579 114.704 16.7262 114.768 16.7761C114.832 16.8261 114.909 16.8555 114.99 16.8604C115.31 16.8796 115.71 16.9732 115.798 17.3084C115.826 17.4615 115.809 17.6194 115.75 17.7631C115.69 17.9069 115.59 18.0304 115.462 18.1188C115.006 18.3935 114.532 18.6367 114.042 18.8468C113.945 18.3991 113.75 17.9786 113.47 17.6156C113.27 17.2825 113.018 16.9833 112.723 16.7292L115.49 14.2972ZM93.9048 27.8172C94.3768 27.8108 94.5656 27.9092 94.5888 27.9412C94.5754 28.0524 94.5291 28.1571 94.456 28.242C94.3356 28.387 94.2541 28.5602 94.2193 28.7454C94.1844 28.9306 94.1974 29.1216 94.2568 29.3004C94.3442 29.4827 94.4757 29.6403 94.6395 29.7589C94.8032 29.8775 94.994 29.9534 95.1944 29.9796C95.2926 29.9796 95.3873 29.9434 95.4606 29.878C95.5338 29.8127 95.5804 29.7226 95.5916 29.6251C95.6028 29.5276 95.5777 29.4293 95.5211 29.3491C95.4645 29.2689 95.3804 29.2122 95.2848 29.19C95.2048 29.1708 95.0336 29.0916 95.0024 29.01C94.984 28.9644 95.0024 28.8572 95.1168 28.69C95.2716 28.5215 95.3649 28.3056 95.3813 28.0774C95.3977 27.8492 95.3363 27.6221 95.2072 27.4332C100.52 24.6408 105.636 21.4886 110.519 17.9988C110.706 17.8388 110.851 17.6788 111.198 17.3124C111.328 17.1691 111.51 17.0834 111.704 17.0741C111.897 17.0648 112.087 17.1326 112.23 17.2628C112.702 17.7105 113.059 18.2654 113.27 18.8804C113.342 19.236 113.325 19.6039 113.219 19.951C113.113 20.2981 112.923 20.6133 112.665 20.8684C109.54 25.5396 106.529 28.7972 100.049 33.462C99.8202 33.0398 99.5683 32.6307 99.2944 32.2364C98.8351 31.481 98.2972 30.7762 97.6896 30.134C97.5552 29.9916 96.96 30.038 97.184 30.446C97.904 31.758 100.171 33.8492 100.442 37.0268C100.445 37.7866 100.586 38.5396 100.858 39.2492C101.402 40.39 102.53 40.9452 103.406 41.7708C103.801 42.1199 104.085 42.5778 104.22 43.0871C104.356 43.5964 104.339 44.1345 104.17 44.634C104.09 45.01 103.834 45.1572 103.51 45.4084C103.038 44.93 102.49 44.5348 101.886 44.2396C99.8328 43.2628 98.0704 44.4796 96.4744 45.9428C94.8247 47.4179 93.4912 49.2122 92.5544 51.2172C92.356 51.3188 91.304 52.1692 91.1848 52.5772C90.647 52.7412 90.0846 52.8094 89.5232 52.7788C89.1476 52.7619 88.7876 52.6238 88.4972 52.3851C88.2067 52.1464 88.0014 51.82 87.912 51.4548C87.4168 50.1436 86.9728 48.786 86.5432 47.474C86.0008 45.8172 86.0416 45.9812 86.0688 45.9012C86.1692 44.8725 85.9863 43.8359 85.54 42.9036C85.3145 42.2582 85.0541 41.6256 84.76 41.0084C84.5872 40.1983 84.4323 39.3849 84.2952 38.5684C85.7728 38.7812 86.6224 38.1764 86.9224 37.2932C87.096 36.606 86.7296 35.954 86.7288 35.5052C86.7885 35.0707 86.9562 34.658 87.2168 34.3052C87.9675 32.6379 88.1215 30.763 87.6528 28.9956C87.8128 28.962 87.9728 28.922 88.1328 28.8772C89.5456 29.482 91.5608 29.9172 92.92 29.2708C93.5048 29.002 94.0368 28.43 93.9048 27.8204V27.8172ZM86.1664 24.3156C86.36 24.23 86.764 24.198 87.2976 24.9556C87.5376 25.2972 87.6872 25.4652 87.9136 25.7932C87.918 25.7996 87.9242 25.8045 87.9315 25.8071C87.9388 25.8097 87.9467 25.81 87.9542 25.8079C87.9616 25.8058 87.9682 25.8013 87.973 25.7953C87.9778 25.7892 87.9805 25.7817 87.9808 25.774C88.0608 23.6652 87.7352 23.7628 88.6456 21.79C88.9912 21.1425 89.2169 20.4378 89.312 19.71C89.636 20.6804 89.1672 21.238 89.3448 21.186C89.7448 21.074 90.3384 20.9412 90.3384 20.9412C90.3462 20.9396 90.3532 20.9356 90.3584 20.9297C90.3636 20.9237 90.3667 20.9163 90.3672 20.9084C90.4218 20.3744 90.3976 19.8353 90.2952 19.3084C90.8016 19.5628 90.676 20.006 90.7824 20.5428C90.7992 20.6308 90.8688 20.5108 91.6448 20.2892C91.6499 20.2878 91.6547 20.2854 91.6588 20.282C91.6628 20.2785 91.6661 20.2743 91.6683 20.2695C91.6705 20.2646 91.6716 20.2594 91.6716 20.2541C91.6715 20.2488 91.6703 20.2436 91.668 20.2388C91.541 19.9464 91.4751 19.6312 91.4744 19.3124C91.9672 19.5428 91.804 19.6676 92.2104 20.4188C92.0686 20.4546 91.9431 20.5373 91.8544 20.6535C91.7656 20.7697 91.7188 20.9126 91.7216 21.0588C91.7288 21.2092 91.8336 21.2684 91.9272 21.3412C91.976 21.3709 92.0315 21.3879 92.0885 21.3906C92.1456 21.3934 92.2024 21.3819 92.2539 21.3571C92.3053 21.3323 92.3497 21.295 92.3831 21.2486C92.4164 21.2022 92.4377 21.1483 92.4448 21.0916C92.474 21.0788 92.5039 21.0678 92.5344 21.0588C92.9664 22.1156 92.6864 21.5308 93.2024 22.7724C92.81 22.4892 92.4641 22.1467 92.1768 21.7572C92.1157 21.6704 92.0226 21.6115 91.9181 21.5933C91.8135 21.5752 91.706 21.5993 91.6192 21.6604C91.5324 21.7215 91.4735 21.8146 91.4553 21.9192C91.4372 22.0237 91.4613 22.1312 91.5224 22.218C91.8029 22.6052 92.1351 22.9521 92.5096 23.2492L92.1272 23.6204C92.07 23.6758 92.0307 23.7471 92.0143 23.825C91.9978 23.9029 92.005 23.984 92.0349 24.0578C92.0648 24.1316 92.1161 24.1948 92.1821 24.2393C92.2482 24.2838 92.326 24.3076 92.4056 24.3076C92.6616 24.3076 93.3808 23.5332 93.4456 23.4532C93.5824 23.9185 93.668 24.3973 93.7008 24.8812C93.6948 25.1838 93.6313 25.4824 93.5136 25.7612C93.1356 26.1977 92.6483 26.5257 92.1016 26.7116C92.0499 26.7305 92.0026 26.7598 91.9628 26.7978C91.9229 26.8358 91.8913 26.8817 91.87 26.9324C91.8487 26.9832 91.8381 27.0378 91.8388 27.0929C91.8396 27.1479 91.8517 27.2022 91.8744 27.2524C91.9975 27.5177 92.1403 27.7733 92.3016 28.0172C92.3454 28.0814 92.4069 28.1314 92.4786 28.1612C92.5503 28.191 92.6292 28.1993 92.7055 28.1851C92.7818 28.1708 92.8524 28.1346 92.9085 28.081C92.9647 28.0273 93.004 27.9584 93.0216 27.8828C93.0848 27.9164 93.1192 27.9516 93.1232 27.9804C93.1376 28.0988 92.9528 28.3668 92.5808 28.5404C91.9128 28.8604 90.5352 28.95 88.752 28.2564C88.4347 27.4631 87.9878 26.7281 87.4296 26.0812C87.4235 26.0767 87.416 26.0743 87.4084 26.0743C87.4008 26.0743 87.3934 26.0767 87.3872 26.0812C87.0176 26.3172 86.7192 26.1308 86.2992 25.7572C86.0616 25.5498 85.8939 25.274 85.8192 24.9676C85.8016 24.8367 85.8257 24.7036 85.888 24.5871C85.9503 24.4707 86.0477 24.3768 86.1664 24.3188V24.3156ZM56.072 49.0708C56.2833 49.4384 56.6186 49.7187 57.0177 49.8616C57.4169 50.0045 57.8538 50.0007 58.2504 49.8508C58.6623 49.7017 59.0391 49.4696 59.3574 49.1687C59.6757 48.8679 59.9288 48.5048 60.1008 48.102C60.4145 47.3736 60.6038 46.5978 60.6608 45.8068C60.9367 44.4112 60.7444 42.9636 60.1136 41.6884C59.4333 40.6105 58.6851 39.577 57.8736 38.594C57.4052 38.1495 57.1021 37.5586 57.0144 36.9188C57.0565 36.6319 57.157 36.3567 57.3098 36.1103C57.4625 35.8638 57.6642 35.6513 57.9024 35.486C59.1078 34.5609 60.5321 33.9636 62.0368 33.7524C63.3658 33.5307 64.72 33.5038 66.0568 33.6724C66.6661 33.8312 67.304 33.846 67.92 33.7154C68.536 33.5849 69.1131 33.3127 69.6056 32.9204C69.8452 32.7709 70.0435 32.5636 70.1823 32.3176C70.321 32.0717 70.3959 31.7948 70.4 31.5124C70.3568 31.2201 70.2626 30.9377 70.1216 30.678C69.8592 29.878 70.6256 28.9612 71.444 28.686C72.4946 28.4592 73.5737 28.3939 74.644 28.4924C75.5562 28.5158 76.4544 28.265 77.2224 27.7724C77.8088 27.2343 78.4527 26.7624 79.1424 26.3652C79.7376 26.1122 80.356 25.9177 80.9888 25.7844C81.7113 25.6561 82.4529 25.6842 83.1636 25.8668C83.8743 26.0494 84.5376 26.3822 85.1088 26.8428L85.5568 27.2036C86.4543 27.9901 87.0097 29.0956 87.1048 30.2852C87.1897 31.323 87.0709 32.3674 86.7552 33.3596C86.5305 33.1287 86.3964 32.8245 86.3776 32.5028C86.448 31.8706 86.3795 31.2306 86.1768 30.6276C86.08 30.263 85.9515 29.9075 85.7928 29.5652C85.7934 29.468 85.7585 29.3739 85.6946 29.3005C85.6308 29.2271 85.5424 29.1795 85.4461 29.1666C85.3497 29.1536 85.2519 29.1762 85.171 29.2302C85.0901 29.2841 85.0316 29.3657 85.0064 29.4596C84.9936 29.5092 84.8904 29.5932 84.6464 29.6668C84.3041 29.7698 83.9512 29.8334 83.5944 29.8564C83.1074 29.7907 82.6142 29.9211 82.2232 30.2188C81.7056 30.7036 81.8744 31.43 81.7496 31.7348C81.6771 31.9084 81.5643 32.0624 81.4206 32.1839C81.277 32.3055 81.1065 32.3912 80.9232 32.434C80.6699 32.4539 80.4269 32.543 80.2208 32.6916C79.7208 33.1236 80.0544 33.7708 79.9144 34.1884C79.8524 33.9606 79.7434 33.7483 79.5944 33.5652C79.4398 33.2932 79.3955 32.9722 79.4704 32.6684C79.7103 32.152 79.8301 31.5881 79.8208 31.0188C79.8414 30.8268 79.8092 30.6329 79.7277 30.4578C79.6462 30.2828 79.5185 30.1333 79.3584 30.0254C79.1983 29.9175 79.0117 29.8553 78.8189 29.8456C78.6261 29.8358 78.4342 29.8788 78.264 29.97C77.9126 30.1154 77.6216 30.3767 77.4392 30.7104C77.2569 31.0441 77.1942 31.4301 77.2616 31.8044C77.285 32.4272 77.5526 33.0157 78.0064 33.4428C77.7014 34.9066 76.8598 36.2033 75.6472 37.078C74.7806 37.7382 74.1156 38.6274 73.7272 39.6452C73.2416 40.6236 72.9208 41.7308 72.2224 42.2972C71.408 42.9256 70.4517 43.3445 69.4376 43.5172C68.2712 43.7444 66.5208 44.15 65.704 45.4692C64.904 46.7628 65.3192 48.3412 64.8688 49.4436C64.5659 50.1581 64.0467 50.7597 63.384 51.1636C62.5849 51.7374 61.6478 52.0888 60.6684 52.1819C59.689 52.2749 58.7025 52.1063 57.8096 51.6932C57.3001 51.4673 56.8657 51.1004 56.5579 50.6358C56.25 50.1711 56.0814 49.6281 56.072 49.0708ZM56.1216 51.3796C57.6096 53.1788 61.2088 53.7084 63.8224 51.8268C64.6179 51.3364 65.2395 50.6089 65.6 49.7468C66.08 48.5788 65.7456 46.9076 66.3752 45.89C67.0048 44.8724 68.4688 44.5444 69.5392 44.3116C69.512 44.442 69.3096 45.6404 69.2992 45.7204C68.978 45.8059 68.6926 45.9921 68.4848 46.2516C68.1641 46.647 67.8828 47.0728 67.6448 47.5228C66.6632 49.39 66.7336 51.4708 68.6656 52.2324C68.6448 52.8628 68.6472 53.494 68.6728 54.1204C51.4328 57.0748 32.5048 71.0628 25.0224 88.4236C23.5488 87.3303 21.827 86.6195 20.0112 86.3548C27.6496 69.4284 40.672 57.5724 56.1216 51.378V51.3796ZM46.2816 119.586C45.3762 120.499 44.5753 121.511 43.8936 122.601C43.5995 123.002 43.4354 123.483 43.4237 123.979C43.4119 124.476 43.5531 124.964 43.828 125.378C44.8816 126.585 46.9232 125.348 47.7712 124.745C48.3745 124.225 48.9374 123.659 49.4552 123.053C49.8891 122.566 50.4147 122.169 51.0021 121.885C51.5894 121.601 52.227 121.435 52.8784 121.397C53.4386 121.403 53.9856 121.568 54.4562 121.872C54.9268 122.176 55.3017 122.607 55.5376 123.115C55.9696 124.09 55.5936 125.013 54.3816 126.001C53.916 126.294 53.5135 126.678 53.1976 127.128C52.8817 127.579 52.6587 128.088 52.5416 128.625C52.2512 130.682 54.4168 130.976 56.4744 130.692C58.6744 130.39 60.2664 129.269 62.0272 128.352C63.0807 127.694 64.3053 127.361 65.5472 127.396C66.6228 127.566 67.6032 128.112 68.3144 128.936C69.1711 129.78 69.6782 130.916 69.7344 132.117C69.7906 133.318 69.3918 134.496 68.6176 135.416C68.0458 136.066 67.3346 136.578 66.5371 136.915C65.7397 137.252 64.8765 137.404 64.012 137.36C63.7275 137.167 63.4064 137.033 63.0684 136.968C62.7304 136.903 62.3826 136.907 62.0464 136.981C61.9523 137.007 61.8691 137.063 61.8094 137.14C61.7497 137.218 61.7166 137.312 61.7153 137.41C61.7139 137.508 61.7443 137.603 61.8019 137.682C61.8594 137.761 61.941 137.819 62.0344 137.848C62.5301 138.035 63.049 138.154 63.5768 138.202C63.8407 138.393 64.0525 138.647 64.1928 138.941C64.4192 139.324 64.5462 139.758 64.5622 140.202C64.5783 140.647 64.4829 141.088 64.2848 141.487C63.472 143.226 61.4848 144.296 59.6448 145.112C55.5471 146.926 50.9523 147.284 46.6232 146.126C44.3152 145.48 41.8824 143.851 41.9736 141.22C41.9805 141.161 41.9754 141.101 41.9587 141.044C41.9419 140.987 41.9138 140.935 41.8761 140.889C41.8384 140.843 41.7918 140.806 41.7392 140.778C41.6865 140.751 41.6289 140.735 41.5698 140.73C41.5107 140.726 41.4514 140.734 41.3953 140.753C41.3392 140.772 41.2876 140.802 41.2436 140.842C41.1995 140.882 41.164 140.93 41.139 140.984C41.1141 141.037 41.1003 141.096 41.0984 141.155C41.0984 141.2 41.0984 141.247 41.0936 141.292C40.9808 144.13 37.904 145.692 36.9808 146.105C34.9801 146.956 32.8031 147.309 30.636 147.135C21.3224 146.549 15.5488 137.599 18.636 134.361C18.6946 134.298 18.7333 134.219 18.7476 134.134C18.7619 134.049 18.751 133.961 18.7164 133.882C18.6817 133.803 18.6248 133.736 18.5525 133.689C18.4803 133.642 18.3959 133.617 18.3096 133.617C16.8587 133.772 15.3977 133.438 14.1577 132.669C12.9178 131.899 11.9696 130.739 11.4633 129.37C10.957 128.002 10.9214 126.504 11.3622 125.113C11.8029 123.722 12.6948 122.517 13.8968 121.69C13.9802 121.638 14.0436 121.56 14.0766 121.468C14.1097 121.375 14.1106 121.275 14.079 121.182C14.0474 121.089 13.9854 121.01 13.9029 120.957C13.8204 120.904 13.7224 120.88 13.6248 120.89C13.5927 120.886 13.5603 120.888 13.5288 120.896C11.7842 120.983 10.0542 120.538 8.56807 119.62C7.08198 118.702 5.90994 117.354 5.20724 115.754C4.50455 114.155 4.30438 112.38 4.63326 110.664C4.96213 108.949 5.80453 107.374 7.04883 106.148C8.27523 104.908 10.2576 103.963 11.9688 104.537C12.1385 104.623 12.3129 104.7 12.4912 104.766C12.5394 104.797 12.5933 104.819 12.6499 104.829C12.7064 104.839 12.7645 104.838 12.8206 104.826C12.8767 104.813 12.9298 104.79 12.9768 104.757C13.0237 104.724 13.0636 104.682 13.0941 104.633C13.1246 104.584 13.1451 104.53 13.1544 104.473C13.1637 104.416 13.1615 104.358 13.1482 104.303C13.1348 104.247 13.1104 104.194 13.0765 104.148C13.0425 104.101 12.9997 104.062 12.9504 104.032C12.6775 103.878 12.3875 103.755 12.0864 103.667C9.38243 102.121 9.41923 98.238 9.58003 96.5364C9.86243 93.534 10.4152 90.498 12.5288 88.6292C14.8976 86.5156 18.2952 86.8364 20.1096 87.214C22.1144 87.6268 25.5544 88.742 26.06 91.546C26.1863 93.0102 25.7535 94.4679 24.8488 95.626C23.0728 97.9804 22.8672 97.546 21.9376 98.9964C21.416 100.036 21.7616 101.411 23.0112 101.52C23.666 101.488 24.291 101.237 24.7864 100.808C25.3584 100.367 25.9655 99.9729 26.6016 99.6308C29.0104 98.4252 30.72 99.8292 30.5672 101.064C30.3049 101.995 29.6937 102.789 28.8608 103.281C27.8304 103.972 26.6488 104.524 26.0112 105.645C25.7113 106.191 25.581 106.814 25.6368 107.434C25.6927 108.055 25.9322 108.644 26.3248 109.128C27.7552 110.955 30.3464 111.353 34.1272 110.23C37.2529 109.309 40.0437 107.5 42.16 105.023C42.8499 107.032 43.9692 108.866 45.44 110.399C45.3697 110.746 45.3743 111.105 45.4536 111.45C45.7736 113.764 46.0974 116.077 46.4248 118.392C46.4363 118.428 46.4569 118.462 46.4847 118.488C46.5126 118.515 46.5467 118.534 46.5839 118.543C46.6212 118.553 46.6602 118.553 46.6975 118.543C46.7347 118.534 46.7689 118.515 46.7968 118.488C47.8496 117.232 48.8584 115.97 49.8632 114.675C50.4204 114.998 51.0104 115.26 51.6232 115.458C49.6874 116.62 47.895 118.005 46.2832 119.586H46.2816ZM61.28 117.943C60.2224 116.867 59.164 115.783 58.08 114.677C59.1248 114.093 70 105.892 70.692 105.368C67.3808 109.414 64.3528 113.706 61.28 117.943ZM75.0112 101.058C74.9584 101.272 60.5936 111.92 58.1528 113.711C57.023 114.509 55.6865 114.964 54.3041 115.021C52.9217 115.078 51.5523 114.734 50.3608 114.031C55.228 107.689 57.2896 104.351 62.9912 97.1652C63.6912 96.6092 63.1192 96.4684 62.856 96.6772C59.6688 99.2012 56.384 101.66 53.148 104.117C51.5304 105.33 45.948 109.68 45.9048 109.717C42.2704 105.787 41.0248 100.707 45.04 97.1652C49.0552 93.6236 61.488 83.6372 65.04 80.8108C66.3856 85.7012 69.9352 90.2356 70.2784 95.4028C71.2976 95.7228 72.1632 94.5932 73.1904 94.262C73.9128 94.1357 74.6481 94.1002 75.3792 94.1564C75.5781 94.5891 75.7543 95.0318 75.9072 95.4828C75.9736 95.945 75.9736 96.4143 75.9072 96.8764C75.8404 96.888 75.7783 96.9189 75.7287 96.9652C75.6792 97.0115 75.6442 97.0713 75.628 97.1372C75.625 97.201 75.6381 97.2646 75.6661 97.322C75.694 97.3795 75.736 97.429 75.788 97.466C75.76 97.5532 75.188 100.024 75.0112 101.058ZM78.2568 96.3932C77.7412 98.2438 76.9649 100.012 75.9512 101.644C75.8782 101.758 75.7926 101.863 75.696 101.958C75.588 101.192 76.2088 99.59 76.5504 97.494C77.4864 97.1668 78.3408 95.3732 78.6536 94.4332C78.68 94.4796 79.2136 95.4676 79.4624 95.9108C79.68 96.302 79.6184 96.3372 79.1424 96.666L78.9824 96.346C78.9488 96.2755 78.8948 96.2167 78.8275 96.177C78.7601 96.1374 78.6825 96.1188 78.6045 96.1236C78.5265 96.1284 78.4518 96.1565 78.3898 96.2041C78.3279 96.2517 78.2816 96.3167 78.2568 96.3908V96.3932ZM78.4 98.458C78.5152 98.1588 78.6238 97.8575 78.7256 97.554C78.7902 97.5968 78.865 97.6216 78.9424 97.6258C79.0197 97.63 79.0968 97.6135 79.1656 97.578C79.5304 97.3468 80.2952 97.0028 80.4352 96.4844C80.5816 95.9444 80.04 95.3748 79.86 95.0548C79.1848 93.8252 78.2448 91.6788 78.1 91.4988C79.0824 90.7124 80.5632 91.014 81.8216 90.8692C82.3816 92.37 83.1016 93.2132 82.8976 94.7428C82.8504 94.7787 82.8138 94.8268 82.7918 94.8819C82.7698 94.937 82.7632 94.9971 82.7728 95.0556C81.351 96.1708 79.8934 97.3049 78.4 98.458ZM86.592 94.2068C86.4499 94.3495 86.293 94.4766 86.124 94.586L85.948 94.2372C85.9132 94.1686 85.859 94.1117 85.7921 94.0737C85.7252 94.0357 85.6486 94.0182 85.5719 94.0234C85.4951 94.0286 85.4216 94.0562 85.3604 94.1029C85.2993 94.1496 85.2532 94.2133 85.228 94.286C84.6942 96.2528 83.832 98.1153 82.6776 99.7948C82.5976 99.062 83.4536 96.086 83.608 95.2428C84.328 95.0508 84.76 94.1476 84.9928 93.6612C85.233 93.1577 85.4276 92.6338 85.5744 92.0956C86.3528 93.658 86.28 93.522 86.4064 93.726C86.58 94.0028 86.64 94.1356 86.5952 94.2068H86.592ZM86.4784 92.158C85.572 90.378 84.7984 88.3836 84.5304 88.2564C85.9784 86.1892 89.6224 88.1948 91.1592 86.3556C92.0328 85.3156 91.5072 83.6532 90.9328 82.3348L84.412 67.2556C84.1856 66.889 84.1003 66.4525 84.172 66.0276C85.0739 65.3551 85.9688 64.6911 86.8568 64.0356C87.5896 64.7636 88.7216 64.21 89.4336 63.4596C89.5544 63.6748 89.6904 63.9276 89.7976 64.1524C89.8604 64.3345 89.9712 64.4963 90.1182 64.6208C90.2653 64.7452 90.4432 64.8277 90.6331 64.8596C90.8231 64.8914 91.0182 64.8715 91.1978 64.8018C91.3774 64.7321 91.5348 64.6153 91.6536 64.4636C91.8411 64.5598 92.0506 64.605 92.2611 64.5945C92.4716 64.5841 92.6756 64.5184 92.8526 64.404C93.0296 64.2897 93.1734 64.1307 93.2695 63.9432C93.3656 63.7556 93.4106 63.5461 93.4 63.3356C93.5883 63.3409 93.7751 63.3004 93.9444 63.2178C94.1137 63.1351 94.2605 63.0127 94.3721 62.8609C94.4837 62.7092 94.557 62.5326 94.5855 62.3464C94.6141 62.1602 94.5971 61.9698 94.536 61.7916C94.1922 60.9485 93.6842 60.1822 93.0416 59.5372C94.8816 58.2132 96.904 56.778 98.904 55.3908C102.711 62.0492 102.65 61.8916 103.098 62.794C103.497 63.7371 103.988 64.6386 104.564 65.4852C104.599 65.5241 104.641 65.5557 104.688 65.5783C104.735 65.6008 104.786 65.6138 104.838 65.6165C104.89 65.6191 104.942 65.6115 104.991 65.5939C105.04 65.5763 105.085 65.5491 105.124 65.514C105.218 65.4284 105.235 65.3068 105.394 65.0068C105.554 65.9348 105.736 66.858 105.917 67.7812C105.974 68.0724 105.997 68.4612 106.378 68.4444C106.861 68.3322 107.331 68.167 107.778 67.9516C110.728 66.8356 111.76 66.5764 112.738 65.6116C113.336 65.0228 112.662 64.986 111.938 64.8444L110.239 64.5372C109.713 64.4404 109.018 64.4484 108.719 63.9388C108.507 63.578 108.353 63.2396 108.149 62.8332C108.54 62.783 108.938 62.8383 109.302 62.9932C109.368 63.0276 109.443 63.0423 109.518 63.0356C109.592 63.0289 109.664 63.0009 109.723 62.9552C109.782 62.9094 109.827 62.8476 109.853 62.7771C109.878 62.7066 109.883 62.6303 109.866 62.5572C109.323 60.2596 108.737 57.8188 107.958 55.3388C107.413 53.6004 106.905 51.9212 106.314 50.3444C107.563 49.5129 108.776 48.7148 109.954 47.95C110.508 49.1196 113.666 55.8996 114.763 58.1268C114.801 58.1844 114.853 58.2312 114.915 58.2626C114.976 58.2941 115.045 58.3091 115.114 58.3063C115.182 58.3035 115.249 58.2829 115.308 58.2466C115.367 58.2102 115.415 58.1593 115.448 58.0988C115.469 58.058 115.492 58.0188 115.516 57.9772C115.821 58.8252 116.087 59.686 116.404 60.5372C116.486 60.9067 116.646 61.2544 116.874 61.5572C117.246 61.8692 118.438 61.0468 119.648 60.4972C121.388 59.8507 123.049 59.0093 124.599 57.9892C124.706 57.9284 124.666 57.5156 123.985 57.4956C121.63 57.4956 123.381 57.5484 119.585 57.5484C119.084 57.5484 119.067 57.2852 118.898 56.8732L118.785 56.598C118.834 56.6243 118.881 56.6542 118.925 56.6876C118.988 56.7384 119.066 56.7679 119.147 56.7719C119.228 56.7759 119.308 56.7541 119.376 56.7097C119.444 56.6653 119.496 56.6005 119.524 56.5247C119.553 56.4489 119.557 56.3659 119.536 56.2876C118.634 51.9428 117.728 46.726 116.371 43.8948C121.019 41.0412 125.062 38.75 128.563 36.9116C128.429 39.2206 129.123 41.5016 130.52 43.3449C131.917 45.1882 133.926 46.473 136.185 46.9684C122.614 62.498 102.534 79.4372 86.48 92.158H86.4784Z" fill="#201E50"/>
</svg>
