<svg width="50" height="55" viewBox="0 0 50 55" fill="none" xmlns="http://www.w3.org/2000/svg">
<circle opacity="0.3" cx="11.8235" cy="22.1531" r="4.078" fill="white"/>
<path d="M2.71122 0.816078H19.5735C20.0385 0.832764 20.4067 1.21452 20.4067 1.67994V18.1925C20.4067 18.445 20.5172 18.6852 20.7091 18.8493L46.3527 40.7872C46.393 40.8217 46.43 40.8598 46.4634 40.9011L49.4022 44.5425C49.6715 44.876 49.6555 45.3568 49.3648 45.6716L48.2772 46.8498C48.1413 46.997 48.0608 47.1867 48.0495 47.3867L47.9397 49.307C47.9253 49.5613 47.7992 49.7963 47.5954 49.9492L47.0598 50.3508C46.8422 50.514 46.7141 50.7702 46.7141 51.0423V51.7752C46.7141 52.2526 47.1011 52.6395 47.5784 52.6395C48.0558 52.6395 48.4428 53.0264 48.4428 53.5038V53.8957C48.4428 54.3359 48.112 54.7059 47.6743 54.7548L34.8767 54.7494C34.4855 54.7932 34.1143 54.567 33.9736 54.1995L33.7315 52.8905C33.6688 52.727 33.558 52.5863 33.4137 52.4873L29.5005 49.7981C29.414 49.7385 29.3391 49.6639 29.2793 49.5775L28.1559 47.9545C28.0085 47.7411 27.7728 47.6056 27.5144 47.5849L26.5554 47.5078C26.4167 47.4967 26.283 47.4523 26.1651 47.3783L23.0596 45.4292C22.8988 45.3284 22.7094 45.2831 22.5204 45.3006L19.1322 45.6143C18.8905 45.6366 18.6506 45.5564 18.4711 45.3931L17.3822 44.4032C17.202 44.2393 17.0992 44.0072 17.0992 43.7637V40.8839C17.0992 40.6621 17.0139 40.4487 16.8608 40.288L11.5198 34.6761C11.2993 34.4446 11.2249 34.1102 11.3259 33.8069L11.9891 31.8176C12.0824 31.5378 12.0265 31.2297 11.8409 31.0004L10.975 29.9307C10.9 29.8378 10.8064 29.7616 10.7004 29.7068L9.19456 28.9279C8.88406 28.7674 8.70073 28.4352 8.7305 28.0868L8.93254 25.714C8.96253 25.3613 8.77447 25.0258 8.45788 24.8675L7.04765 24.1624C6.84268 24.0598 6.68664 23.8801 6.61426 23.6627L5.89584 21.5074C5.84961 21.369 5.76934 21.2445 5.66201 21.1455L3.18385 18.8579C2.99985 18.6879 2.89838 18.4466 2.90627 18.1961L3.03322 14.0705C3.04044 13.8367 2.9525 13.6098 2.78947 13.4418L1.45388 12.0656C0.883158 11.4778 0.564087 10.6906 0.564087 9.87115C0.564087 9.47384 0.639176 9.0799 0.785745 8.71055L2.03317 5.56223C2.10397 5.38319 2.11322 5.18566 2.0591 5.00098L1.34745 2.56973C1.27754 2.33071 1.27394 2.07703 1.3373 1.8362C1.49988 1.217 2.07082 0.793077 2.71122 0.816078Z" fill="white" fill-opacity="0.31"/>
<circle cx="11.8235" cy="22.1531" r="1.9502" fill="white"/>
</svg>
