<svg width="65" height="64" viewBox="0 0 65 64" fill="none" xmlns="http://www.w3.org/2000/svg">
<path d="M28.8681 61.9947L18.7615 53.7467C18.1084 53.2244 17.6192 52.5255 17.3521 51.7332C17.085 50.9408 17.0512 50.0883 17.2548 49.2773C17.4135 48.6429 17.7125 48.0523 18.1299 47.5489C18.5473 47.0455 19.0724 46.6423 19.6664 46.3689C20.2605 46.0956 20.9083 45.9591 21.5622 45.9696C22.216 45.98 22.8591 46.1371 23.4441 46.4293L26.5748 48V30C26.5748 28.9391 26.9962 27.9217 27.7464 27.1716C28.4965 26.4214 29.5139 26 30.5748 26C31.6357 26 32.6531 26.4214 33.4032 27.1716C34.1534 27.9217 34.5748 28.9391 34.5748 30V42L39.8895 42.888C41.7575 43.1992 43.4545 44.163 44.6786 45.6078C45.9028 47.0527 46.5747 48.8849 46.5748 50.7787V62" stroke="#201E50" stroke-width="4" stroke-linecap="round" stroke-linejoin="round"/>
<path d="M50.916 38.6294C52.8746 35.4771 54.0746 31.9132 54.4216 28.2183C54.7687 24.5235 54.2533 20.7985 52.916 17.3366C51.5787 13.8748 49.4561 10.7707 46.7152 8.26866C43.9743 5.76663 40.69 3.93502 37.1209 2.91804C33.5519 1.90107 29.7954 1.72649 26.1474 2.40806C22.4994 3.08962 19.0594 4.60873 16.0983 6.84576C13.1371 9.08279 10.7357 11.9767 9.08313 15.2995C7.43053 18.6224 6.57186 22.2836 6.57471 25.9947C6.57638 30.9947 8.15324 35.8671 11.0814 39.92" stroke="#201E50" stroke-width="4" stroke-linecap="round" stroke-linejoin="round"/>
<path d="M42.0414 33.9947C43.5109 31.8968 44.3767 29.4359 44.5446 26.8801C44.7125 24.3242 44.176 21.7713 42.9934 19.4992C41.8109 17.2271 40.0278 15.323 37.8381 13.9941C35.6484 12.6652 33.1361 11.9625 30.5747 11.9625C28.0133 11.9625 25.501 12.6652 23.3113 13.9941C21.1216 15.323 19.3385 17.2271 18.156 19.4992C16.9735 21.7713 16.4369 24.3242 16.6048 26.8801C16.7727 29.4359 17.6385 31.8968 19.108 33.9947" stroke="#408CFF" stroke-width="4" stroke-linecap="round" stroke-linejoin="round"/>
</svg>
