<svg width="65" height="65" viewBox="0 0 65 65" fill="none" xmlns="http://www.w3.org/2000/svg">
<g clip-path="url(#clip0_1515_9542)">
<path d="M4.75415 26.0927C4.75415 27.8226 5.44136 29.4817 6.66459 30.7049C7.88783 31.9281 9.5469 32.6153 11.2768 32.6153C13.0067 32.6153 14.6658 31.9281 15.889 30.7049C17.1123 29.4817 17.7995 27.8226 17.7995 26.0927C17.7995 24.3628 17.1123 22.7037 15.889 21.4805C14.6658 20.2572 13.0067 19.57 11.2768 19.57C9.5469 19.57 7.88783 20.2572 6.66459 21.4805C5.44136 22.7037 4.75415 24.3628 4.75415 26.0927Z" stroke="#201E50" stroke-width="4" stroke-linecap="round" stroke-linejoin="round"/>
<path d="M46.4929 26.0927C46.4929 26.9492 46.6616 27.7974 46.9894 28.5888C47.3172 29.3802 47.7977 30.0992 48.4034 30.7049C49.0091 31.3106 49.7281 31.791 50.5195 32.1188C51.3108 32.4466 52.159 32.6153 53.0156 32.6153C53.8722 32.6153 54.7203 32.4466 55.5117 32.1188C56.3031 31.791 57.0221 31.3106 57.6278 30.7049C58.2335 30.0992 58.714 29.3802 59.0417 28.5888C59.3695 27.7974 59.5383 26.9492 59.5383 26.0927C59.5383 25.2361 59.3695 24.3879 59.0417 23.5966C58.714 22.8052 58.2335 22.0861 57.6278 21.4805C57.0221 20.8748 56.3031 20.3943 55.5117 20.0665C54.7203 19.7387 53.8722 19.57 53.0156 19.57C52.159 19.57 51.3108 19.7387 50.5195 20.0665C49.7281 20.3943 49.0091 20.8748 48.4034 21.4805C47.7977 22.0861 47.3172 22.8052 46.9894 23.5966C46.6616 24.3879 46.4929 25.2361 46.4929 26.0927Z" stroke="#201E50" stroke-width="4" stroke-linecap="round" stroke-linejoin="round"/>
<path d="M43.8796 62.2367V44.2794C40.6031 43.9773 37.4857 42.7268 34.9088 40.6808C32.3318 38.6348 30.4072 35.8821 29.3702 32.7594L27.1249 26.026C26.9448 25.4859 26.8846 24.913 26.9487 24.3473C27.0127 23.7815 27.1994 23.2366 27.4956 22.7504C27.7919 22.2642 28.1907 21.8485 28.6641 21.5323C29.1376 21.216 29.6743 21.0069 30.2369 20.9194C31.1831 20.8024 32.1403 21.022 32.9408 21.5398C33.7413 22.0576 34.3342 22.8404 34.6156 23.7514L36.7969 30.2927C37.4028 32.1094 38.5652 33.6893 40.1194 34.8084C41.6735 35.9274 43.5405 36.5289 45.4556 36.5274H56.9222C57.6077 36.5267 58.2865 36.6611 58.92 36.9229C59.5534 37.1847 60.129 37.5688 60.614 38.0532C61.0989 38.5376 61.4836 39.1129 61.746 39.746C62.0085 40.3792 62.1436 41.0579 62.1436 41.7434V62.2474" stroke="#201E50" stroke-width="4" stroke-linecap="round" stroke-linejoin="round"/>
<path d="M28.0209 28.698L27.4876 30.282C26.8812 32.1024 25.7168 33.6856 24.1596 34.8067C22.6025 35.9278 20.7317 36.5298 18.8129 36.5273H7.35957C5.97851 36.528 4.6541 37.0764 3.67679 38.0522C2.69949 39.028 2.14906 40.3516 2.14624 41.7327V62.2367" stroke="#201E50" stroke-width="4" stroke-linecap="round" stroke-linejoin="round"/>
<path d="M20.4128 62.2367V44.2793C22.6988 44.0678 24.9178 43.3935 26.9349 42.2974C28.952 41.2013 30.7251 39.7063 32.1462 37.9033" stroke="#201E50" stroke-width="4" stroke-linecap="round" stroke-linejoin="round"/>
<path d="M30.813 2.90332V8.23665" stroke="#408CFF" stroke-width="4" stroke-linecap="round" stroke-linejoin="round"/>
<path d="M41.2502 8.466L37.4795 12.2367" stroke="#408CFF" stroke-width="4" stroke-linecap="round" stroke-linejoin="round"/>
<path d="M20.3755 8.466L24.1462 12.2367" stroke="#408CFF" stroke-width="4" stroke-linecap="round" stroke-linejoin="round"/>
</g>
<defs>
<clipPath id="clip0_1515_9542">
<rect width="64" height="64" fill="white" transform="translate(0.14624 0.570007)"/>
</clipPath>
</defs>
</svg>
