<svg width="64" height="65" viewBox="0 0 64 65" fill="none" xmlns="http://www.w3.org/2000/svg">
<g clip-path="url(#clip0_1515_9551)">
<path d="M34.0533 38.0188C33.8067 38.2857 33.5082 38.4994 33.1761 38.6468C32.844 38.7942 32.4852 38.8721 32.1219 38.8759C31.7586 38.8796 31.3983 38.8091 31.0632 38.6686C30.7281 38.5281 30.4253 38.3205 30.1733 38.0588L18.5333 25.9628C16.1333 23.5628 15.5999 19.8294 16.9333 16.6294C19.3333 11.8294 25.9999 10.7628 29.7333 14.4961L31.8666 16.6294L33.9999 14.4961C37.9999 10.4961 44.3999 11.5628 46.7999 16.6294C48.3999 19.8294 47.8666 23.5628 45.1999 25.9628L34.0533 38.0188Z" stroke="#408CFF" stroke-width="4" stroke-miterlimit="10" stroke-linecap="round" stroke-linejoin="round"/>
<path d="M62 10.2482C62 5.70416 58.5333 2.22949 54 2.22949H10C5.46667 2.22949 2 5.70416 2 10.2482V42.3228C2 46.8642 5.46667 50.3388 10 50.3388H14V60.2295C14 62.1015 16.1333 62.9015 17.4667 61.5655L28.1333 50.0722H35.8667L46.5333 61.5655C47.8667 62.9015 50 62.0988 50 60.2295V50.3388H54C58.5333 50.3388 62 46.8642 62 42.3228V10.2482Z" stroke="#201E50" stroke-width="4" stroke-miterlimit="10" stroke-linecap="round" stroke-linejoin="round"/>
</g>
<defs>
<clipPath id="clip0_1515_9551">
<rect width="64" height="64" fill="white" transform="translate(0 0.229492)"/>
</clipPath>
</defs>
</svg>
