<svg width="64" height="64" viewBox="0 0 64 64" fill="none" xmlns="http://www.w3.org/2000/svg">
<path d="M9.17919 47.1319C9.65092 53.738 15.073 59.2224 21.6773 59.7234C23.2016 59.8391 24.7435 59.9122 26.3003 59.9122C27.8572 59.9122 29.3991 59.8391 30.9234 59.7234C37.5277 59.2224 42.9498 53.738 43.4215 47.1319C43.5379 45.5016 43.6121 43.8517 43.6121 42.1849C43.6121 37.8818 43.6668 33.6909 43.4932 29.6628C43.3983 27.4572 41.6519 25.7055 39.4496 25.5495C30.7638 24.9339 21.8369 24.9339 13.1511 25.5495C10.9488 25.7055 9.20246 27.4572 9.10742 29.6628C8.93394 33.6909 8.98866 37.8818 8.98866 42.1849C8.98866 43.8517 9.06281 45.5016 9.17919 47.1319Z" stroke="#201E50" stroke-width="4"/>
<path d="M43.6177 30.3698C44.0968 30.3845 44.5841 30.4052 45.0764 30.4306C50.3013 30.7001 55.0195 34.847 55.0195 40.0791C55.0195 45.3111 50.3018 49.4619 45.0766 49.7284C44.4059 49.7627 43.7419 49.7883 43.0911 49.802" stroke="#201E50" stroke-width="4"/>
<path d="M20.5691 12.3735V4.08777" stroke="#408CFF" stroke-width="4" stroke-linecap="round" stroke-linejoin="round"/>
<path d="M32.0312 12.3735V4.08777" stroke="#408CFF" stroke-width="4" stroke-linecap="round" stroke-linejoin="round"/>
</svg>
