<svg width="64" height="64" viewBox="0 0 64 64" fill="none" xmlns="http://www.w3.org/2000/svg">
<path d="M3.92065 32C3.92065 39.4471 6.87901 46.5892 12.1449 51.8551C17.4108 57.121 24.5529 60.0793 32 60.0793C39.4471 60.0793 46.5892 57.121 51.8551 51.8551C57.121 46.5892 60.0793 39.4471 60.0793 32C60.0793 24.5529 57.121 17.4108 51.8551 12.1449C46.5892 6.87901 39.4471 3.92065 32 3.92065C24.5529 3.92065 17.4108 6.87901 12.1449 12.1449C6.87901 17.4108 3.92065 24.5529 3.92065 32Z" stroke="#201E50" stroke-width="4" stroke-linecap="round" stroke-linejoin="round"/>
<path d="M32.1694 32.1697C32.1694 32.1697 24.5228 39.1873 20.5771 39.1873C18.716 39.1873 16.931 38.448 15.615 37.1319C14.2989 35.8159 13.5596 34.0309 13.5596 32.1697C13.5596 30.3086 14.2989 28.5236 15.615 27.2076C16.931 25.8915 18.716 25.1522 20.5771 25.1522C24.5228 25.1522 32.1694 32.1697 32.1694 32.1697Z" stroke="#408CFF" stroke-width="4" stroke-linecap="round" stroke-linejoin="round"/>
<path d="M32.1694 32.1697C32.1694 32.1697 39.8183 39.1873 43.7548 39.1873C45.616 39.1873 47.401 38.448 48.717 37.1319C50.0331 35.8159 50.7724 34.0309 50.7724 32.1697C50.7724 30.3086 50.0331 28.5236 48.717 27.2076C47.401 25.8915 45.616 25.1522 43.7548 25.1522C39.8183 25.1522 32.1694 32.1697 32.1694 32.1697Z" stroke="#408CFF" stroke-width="4" stroke-linecap="round" stroke-linejoin="round"/>
</svg>
