<svg width="220" height="36" viewBox="0 0 220 36" fill="none" xmlns="http://www.w3.org/2000/svg">
<mask id="mask0_1727_981" style="mask-type:luminance" maskUnits="userSpaceOnUse" x="0" y="5" width="122" height="24">
<path d="M121.76 5.48682H0V28.8326H121.76V5.48682Z" fill="white"/>
</mask>
<g mask="url(#mask0_1727_981)">
<path d="M2.39859 12.3691H0V16.983H2.39859V12.3691Z" fill="#FEB172"/>
<path d="M26.6794 11.9202C25.0086 11.9286 23.3774 12.4317 21.9922 13.3662C20.6069 14.3006 19.5296 15.6244 18.8961 17.1705C18.2625 18.7166 18.101 20.4158 18.432 22.0536C18.7632 23.6914 19.5721 25.1944 20.7565 26.3729C21.9409 27.5514 23.4481 28.3528 25.0875 28.6756C26.7269 28.9986 28.4254 28.8286 29.9681 28.1873C31.5111 27.5459 32.8294 26.4619 33.757 25.072C34.6845 23.6821 35.1794 22.0486 35.1794 20.3777C35.1876 19.2612 34.973 18.1542 34.5483 17.1216C34.1235 16.089 33.4969 15.1515 32.7054 14.3639C31.9141 13.5764 30.9732 12.9546 29.9386 12.535C28.904 12.1154 27.7958 11.9064 26.6794 11.9202ZM26.6794 24.1575C24.5969 24.1575 22.9952 22.6514 22.9952 20.3777C22.9952 18.1039 24.5889 16.5979 26.6794 16.5979C28.7699 16.5979 30.3636 18.1013 30.3636 20.3777C30.3636 22.6541 28.7725 24.1575 26.6794 24.1575Z" fill="#FEB172"/>
<path d="M60.1694 12.3771V28.3943H64.9746V16.9804H67.9549V12.3771H64.9746C64.9746 10.5178 66.1619 9.97324 67.9549 10.1326V5.51339C62.6371 5.20527 60.1694 7.88277 60.1694 12.3771Z" fill="#FEB172"/>
<path d="M2.39856 12.3771V28.3943H7.20371V16.9804H10.1814V12.3771H7.20371C7.20371 10.5178 8.3884 9.97324 10.1814 10.1326V5.51339C4.86622 5.20527 2.39856 7.88277 2.39856 12.3771Z" fill="#FEB172"/>
<path d="M76.9223 11.9202C75.2515 11.9286 73.6203 12.4317 72.2351 13.3662C70.8499 14.3006 69.7725 15.6244 69.139 17.1705C68.5055 18.7166 68.344 20.4158 68.6749 22.0536C69.0062 23.6914 69.815 25.1944 70.9994 26.3729C72.1838 27.5514 73.691 28.3528 75.3304 28.6756C76.9699 28.9986 78.6683 28.8286 80.211 28.1873C81.754 27.5459 83.0723 26.4619 83.9999 25.072C84.9272 23.6821 85.4223 22.0486 85.4223 20.3777C85.4306 19.2612 85.2159 18.1542 84.7912 17.1216C84.3665 16.089 83.7399 15.1515 82.9483 14.3639C82.157 13.5764 81.2161 12.9546 80.1815 12.535C79.1469 12.1154 78.0387 11.9064 76.9223 11.9202ZM76.9223 24.1575C74.8425 24.1575 73.2408 22.6514 73.2408 20.3777C73.2408 18.1039 74.8345 16.5979 76.9223 16.5979C79.0101 16.5979 80.6012 18.1013 80.6012 20.3777C80.6012 22.6541 79.0075 24.1575 76.9223 24.1575Z" fill="#FEB172"/>
<path d="M91.5742 15.2194V12.3772H86.769V28.3944H91.5742V21.1428C91.5742 17.9712 94.3925 17.1584 96.3794 17.4905V12.3984C94.1481 12.1753 92.2144 13.0731 91.5742 15.2194Z" fill="#FEB172"/>
<path d="M52.7399 15.9019L51.3825 20.9488L48.883 12.3771H44.3992L41.8997 20.9621L39.5941 12.3771H34.4675L39.5941 28.3943H44.0778L46.6411 19.8411L49.2044 28.3943H53.6882L56.9075 18.3271C57.0369 17.923 57.2914 17.5704 57.6343 17.3202C57.9769 17.0701 58.3902 16.9352 58.8147 16.9352V12.3771H57.3485C56.3 12.3781 55.2811 12.7237 54.4484 13.3606C53.6156 13.9975 53.0153 14.8904 52.7399 15.9019Z" fill="#FEB172"/>
<path d="M16.8432 5.48682H12.0381V28.3837H16.8432V5.48682Z" fill="#FEB172"/>
<path d="M115.664 11.9203C113.39 11.9203 111.916 12.7517 111.018 14.0453C110.123 12.6986 108.712 11.9203 106.824 11.9203C104.677 11.9203 103.267 12.7517 102.529 13.8408V12.3772H97.7367V28.3943H102.539V19.3631C102.539 17.4718 103.437 16.3509 105.039 16.3509C106.577 16.3509 107.344 17.3762 107.344 18.9779V28.397H112.15V19.3658C112.15 17.4745 113.047 16.3536 114.649 16.3536C116.187 16.3536 116.955 17.3789 116.955 18.9806V23.5919V28.397H121.773V18.5689C121.773 14.5473 119.359 11.9203 115.664 11.9203Z" fill="#FEB172"/>
</g>
<path d="M145.009 16.3588V5.34H147.612V29H145.009V25.7552C143.759 28.155 141.764 29.338 138.993 29.338C136.728 29.338 134.869 28.5606 133.483 27.0396C132.098 25.5186 131.388 23.5244 131.388 21.057C131.388 18.5896 132.098 16.5616 133.483 15.0406C134.869 13.5196 136.728 12.776 138.993 12.776C141.764 12.776 143.759 13.959 145.009 16.3588ZM135.41 25.5186C136.323 26.4988 137.708 26.972 139.601 26.972C141.494 26.972 142.88 26.4988 143.792 25.5186C144.705 24.5384 145.144 23.0512 145.144 21.057C145.144 19.0628 144.705 17.5756 143.792 16.5954C142.88 15.6152 141.494 15.142 139.601 15.142C137.708 15.142 136.323 15.6152 135.41 16.5954C134.497 17.5756 134.058 19.0628 134.058 21.057C134.058 23.0512 134.497 24.5384 135.41 25.5186ZM165.059 20.6176C165.059 21.057 165.059 21.4964 165.025 21.8682H152.688C152.857 25.62 154.344 27.1072 157.859 27.1072C160.462 27.1072 161.543 26.4312 162.253 24.3694L164.687 25.3158C163.605 28.0198 161.003 29.338 157.859 29.338C155.459 29.338 153.567 28.5944 152.147 27.0734C150.727 25.5862 150.018 23.592 150.018 21.057C150.018 18.5896 150.761 16.5954 152.215 15.0744C153.668 13.5534 155.493 12.776 157.724 12.776C159.921 12.776 161.679 13.4858 163.031 14.8716C164.383 16.2912 165.059 18.2178 165.059 20.6176ZM157.69 14.973C154.682 14.973 153.026 16.5616 152.722 19.7388H162.456C162.219 16.325 160.901 14.973 157.69 14.973ZM172.798 29.338C169.283 29.338 166.748 27.648 166.038 24.437L168.607 23.592C169.046 26.127 170.263 27.0396 172.967 27.0396C175.333 27.0396 176.516 26.3298 176.516 24.8764C176.516 23.5244 176.009 23.0512 174.116 22.6794L171.007 22.071C168.066 21.4964 166.579 20.0092 166.579 17.5418C166.579 14.6688 168.911 12.776 172.426 12.776C176.111 12.776 178.24 14.466 178.815 17.8122L176.246 18.522C175.942 15.7166 174.86 15.0744 172.528 15.0744C170.331 15.0744 169.215 15.818 169.215 17.339C169.215 18.6572 169.689 19.2318 171.142 19.5022L175.13 20.2796C177.767 20.7866 179.085 22.1724 179.085 24.437C179.085 27.3776 176.584 29.338 172.798 29.338ZM182.72 9.1932C181.469 9.1932 180.793 8.551 180.759 7.2666C180.725 6.0836 181.401 5.4414 182.72 5.4414C183.936 5.4414 184.579 6.0498 184.612 7.2666C184.646 8.4834 183.97 9.1932 182.72 9.1932ZM183.97 29H181.368V13.114H183.97V29ZM199.413 16.156V13.114H202.016V28.2564C202.016 32.4138 199.042 35.084 194.276 35.084C190.254 35.084 187.685 33.5968 186.569 30.5886L189.071 29.4056C189.51 30.7576 190.085 31.6702 190.794 32.1096C191.504 32.549 192.653 32.7856 194.276 32.7856C197.892 32.7856 199.413 31.366 199.413 28.2564V24.9778C198.23 27.2424 196.338 28.3578 193.701 28.3578C191.572 28.3578 189.814 27.6142 188.428 26.1608C187.043 24.7074 186.367 22.8484 186.367 20.5838C186.367 18.2854 187.043 16.3926 188.428 14.9392C189.814 13.4858 191.572 12.776 193.701 12.776C196.338 12.776 198.23 13.8914 199.413 16.156ZM194.276 25.958C197.892 25.958 199.616 24.2342 199.616 20.5838C199.616 16.8996 197.892 15.142 194.343 15.142C190.727 15.142 189.037 16.8996 189.037 20.5838C189.037 24.2342 190.727 25.958 194.276 25.958ZM214.171 12.776C217.855 12.776 219.95 14.973 219.95 18.9952V29H217.348V19.1642C217.348 16.5954 215.827 15.142 213.427 15.142C210.284 15.142 208.357 17.5756 208.357 21.6654V29H205.754V13.114H208.357V17.0348C209.236 14.1956 211.162 12.776 214.171 12.776Z" fill="#FEB172"/>
</svg>
