<svg width="86" height="32" viewBox="0 0 86 32" fill="none" xmlns="http://www.w3.org/2000/svg">
<path d="M1.43329 1.38309C1.81139 1.38309 2.13674 1.51471 2.40933 1.77794C2.68632 2.05434 2.82261 2.38339 2.82261 2.76947V13.7904H3.86021C5.27591 13.7904 6.51135 13.3165 7.57093 12.3733C8.60852 11.43 9.20206 10.263 9.34276 8.88098C9.38232 8.52561 9.53621 8.23166 9.8 7.99474C10.0638 7.74905 10.376 7.6306 10.7321 7.6306H10.776C11.1849 7.6306 11.5235 7.78415 11.8004 8.08688C12.0774 8.3896 12.1917 8.75374 12.1522 9.17054C11.9192 11.5879 10.8156 13.5315 8.85034 14.9925C10.0726 15.7339 11.0398 16.7255 11.7521 17.9671C12.4951 19.2482 12.8688 20.6302 12.8688 22.1131V22.8896C12.8688 23.2757 12.7325 23.6004 12.4555 23.8636C12.1786 24.14 11.8532 24.276 11.4795 24.276H11.4355C11.0574 24.276 10.7321 24.14 10.4595 23.8636C10.1825 23.6004 10.0462 23.2757 10.0462 22.8896V22.1131C10.0374 20.5994 9.49664 19.3096 8.42826 18.2391C7.3467 17.173 6.04971 16.6377 4.53288 16.6377H2.82261V22.8896C2.82261 23.2757 2.68632 23.6004 2.40933 23.8636C2.13234 24.14 1.807 24.276 1.43329 24.276H1.38932C1.01121 24.276 0.685866 24.14 0.413277 23.8636C0.136292 23.6004 0 23.2757 0 22.8896V2.76947C0 2.38339 0.136292 2.05434 0.413277 1.77794C0.690262 1.51471 1.01561 1.38309 1.38932 1.38309H1.43329Z" fill="white"/>
<path d="M18.303 17.0369C18.303 18.1645 18.6987 19.1297 19.4945 19.9326C20.2991 20.7354 21.2707 21.1391 22.4138 21.1391C23.557 21.1391 24.5066 20.7398 25.3024 19.9326C26.107 19.1385 26.5115 18.1733 26.5115 17.0369V9.03452C26.5115 8.64844 26.6478 8.31939 26.9247 8.04299C27.2017 7.76659 27.5315 7.63058 27.9184 7.63058H27.9491C28.336 7.63058 28.6614 7.76659 28.9252 8.04299C29.2022 8.31939 29.3385 8.64844 29.3385 9.03452V23.6267C29.3385 25.5088 28.6262 27.1365 27.1973 28.5229C25.8124 29.8742 24.2164 30.5498 22.4138 30.5498C20.9674 30.5498 19.6528 30.1945 18.4701 29.4837C17.3314 28.8037 16.4652 27.8823 15.8717 26.7241C15.6783 26.3468 15.6607 25.9651 15.8277 25.579C15.9816 25.1842 16.2542 24.9165 16.6543 24.7849L16.7159 24.7542C17.0412 24.6401 17.3622 24.6489 17.6787 24.7674C17.9953 24.899 18.2327 25.1183 18.3953 25.4211C18.7603 26.1143 19.3054 26.6671 20.0309 27.0839C20.7651 27.5094 21.5609 27.7244 22.4138 27.7244C23.5042 27.7244 24.4539 27.3208 25.2716 26.5179C26.0982 25.7062 26.5071 24.741 26.5071 23.6223V22.6C25.2936 23.495 23.9307 23.9426 22.4138 23.9426C20.4969 23.9426 18.8658 23.2669 17.5072 21.9156C16.1531 20.5731 15.476 18.9498 15.476 17.0369V9.03452C15.476 8.64844 15.6123 8.31939 15.8893 8.04299C16.1663 7.76659 16.4916 7.63058 16.8653 7.63058H16.9093C17.2874 7.63058 17.6128 7.76659 17.8853 8.04299C18.1623 8.31939 18.2986 8.64844 18.2986 9.03452V17.0369H18.303Z" fill="white"/>
<path d="M35.2167 22.894C35.2167 23.2801 35.0804 23.6047 34.8034 23.868C34.5264 24.1444 34.2011 24.2804 33.8274 24.2804H33.7834C33.4053 24.2804 33.08 24.1444 32.8074 23.868C32.5304 23.6047 32.3941 23.2801 32.3941 22.894V14.5537C32.3941 12.6409 33.0712 11.0132 34.4253 9.66191C35.7795 8.31062 37.415 7.63498 39.3319 7.63498C41.2488 7.63498 42.8668 8.31062 44.2209 9.66191C45.5751 11.0132 46.2522 12.6453 46.2522 14.5537V22.894C46.2522 23.2801 46.1159 23.6047 45.8389 23.868C45.5751 24.1444 45.2497 24.2804 44.8628 24.2804H44.8321C44.4452 24.2804 44.1154 24.1444 43.8384 23.868C43.5614 23.6047 43.4251 23.2801 43.4251 22.894V14.5537C43.4251 13.4262 43.0295 12.461 42.2337 11.6581C41.4291 10.8553 40.4618 10.4516 39.3319 10.4516C38.202 10.4516 37.2172 10.8553 36.4126 11.6581C35.6168 12.461 35.2211 13.4262 35.2211 14.5537V22.894H35.2167Z" fill="white"/>
<path d="M64.1375 1.38309C64.5156 1.38309 64.8409 1.51471 65.1135 1.77794C65.3905 2.05434 65.5268 2.38339 65.5268 2.76947V16.0016C65.518 18.2873 64.6958 20.2397 63.0691 21.8542C61.438 23.4687 59.4771 24.2804 57.1865 24.2804C54.8958 24.2804 52.9174 23.4687 51.2906 21.841C49.6595 20.2134 48.8461 18.2522 48.8461 15.9577C48.8461 13.6631 49.6595 11.6976 51.2906 10.0743C52.9218 8.44663 54.887 7.63498 57.1865 7.63498C59.2836 7.63498 61.1214 8.33256 62.7042 9.72334V2.76947C62.7042 2.38339 62.8405 2.05434 63.1175 1.77794C63.3944 1.51471 63.7198 1.38309 64.0935 1.38309H64.1375ZM53.2735 12.1013C52.2051 13.1805 51.6687 14.4792 51.6687 16.0059C51.6687 17.5327 52.2051 18.8182 53.2735 19.8931C54.3551 20.9724 55.6565 21.5076 57.1865 21.5076C58.7165 21.5076 60.0135 20.968 61.0818 19.8931C62.1634 18.8138 62.6998 17.5196 62.6998 16.0059C62.6998 14.4923 62.159 13.1805 61.0818 12.1013C60.0135 11.022 58.7121 10.4867 57.1865 10.4867C55.6608 10.4867 54.3551 11.0264 53.2735 12.1013Z" fill="white"/>
<path d="M75.7357 7.63058C76.1226 7.63058 76.4524 7.76659 76.7293 8.04299C76.9931 8.31939 77.125 8.64844 77.125 9.03452V9.06523C77.125 9.45131 76.9931 9.77597 76.7293 10.0392C76.4655 10.3024 76.1226 10.4516 75.7357 10.4516H74.8652C73.9067 10.4516 73.0934 10.7851 72.4207 11.4563C71.7568 12.1276 71.4227 12.9392 71.4139 13.8956V22.8896C71.4139 23.2757 71.2776 23.6003 71.0006 23.8636C70.7236 24.14 70.3982 24.276 70.0245 24.276H69.9806C69.6025 24.276 69.2771 24.14 69.0045 23.8636C68.7275 23.6003 68.5912 23.2757 68.5912 22.8896V13.8956C68.6132 12.1583 69.2244 10.6798 70.4246 9.46009C71.6469 8.24042 73.1285 7.63058 74.8696 7.63058H75.7401H75.7357Z" fill="white"/>
<path d="M84.4012 20.2381C83.1528 18.9924 81.2747 18.7606 79.7913 19.5427L76.1918 23.1318L78.848 25.7824C80.3819 27.313 82.8701 27.313 84.404 25.7824C85.9378 24.2518 85.9378 21.7687 84.404 20.2381H84.4012Z" fill="white"/>
</svg>
