<svg width="126" height="30" viewBox="0 0 126 30" fill="none" xmlns="http://www.w3.org/2000/svg">
<g clip-path="url(#clip0_1740_6903)">
<path d="M72.5682 15.9646C72.5682 13.002 71.3 10.3843 67.0109 10.3843C64.8104 10.3843 63.0623 11.0115 62.1145 11.5605L62.8092 13.9374C63.6818 13.3899 65.0741 12.9391 66.3883 12.9391C68.5597 12.936 68.9155 14.1643 68.9155 14.9541V15.1442C64.1755 15.1366 61.1791 16.7743 61.1791 20.1096C61.1791 22.1476 62.7003 24.0583 65.3594 24.0583C66.9818 24.0583 68.3527 23.4035 69.1715 22.3699H69.2513C69.2513 22.3699 69.7911 24.6287 72.7767 23.7654C72.6249 22.8192 72.5682 21.8225 72.5682 20.611V15.9646ZM69.0321 19.0929C69.0321 19.3321 69.0121 19.5805 68.9416 19.7937C68.6686 20.7061 67.7271 21.4698 66.5554 21.4698C65.5664 21.4698 64.7904 20.9101 64.7904 19.737C64.7904 17.9428 66.7717 17.449 69.0321 17.4613" fill="white"/>
<path d="M0 6.3533C0 6.3533 3.09604 19.0197 3.58831 21.0715C4.16795 23.4699 5.20611 24.3562 8.20252 23.7658L10.1377 15.9114C10.6269 13.9654 10.9597 12.57 11.2756 10.5872H11.3292C11.5485 12.5899 11.8644 13.9654 12.2647 15.9175C12.2647 15.9175 13.0544 19.4859 13.4638 21.3552C13.8625 23.2245 14.985 24.4038 17.9247 23.7658L22.5312 6.3533H18.8125L17.2316 13.8857C16.8129 16.0678 16.4326 17.7868 16.1367 19.7865H16.083C15.8162 17.8083 15.4773 16.1598 15.0418 14.0222L13.404 6.3533H9.52437L7.77619 13.8259C7.2778 16.1077 6.81164 17.9371 6.51874 19.8739H6.46815C6.16607 18.0567 5.75664 15.7427 5.32263 13.5468C5.32263 13.5468 4.28447 8.19654 3.918 6.3533" fill="white"/>
<path d="M32.8945 15.9646C32.8945 13.002 31.6232 10.3843 27.3341 10.3843C25.1397 10.3843 23.3885 11.0115 22.4409 11.5605L23.1355 13.9374C24.005 13.3899 25.3959 12.9391 26.7146 12.9391C28.886 12.936 29.2417 14.1643 29.2417 14.9541V15.1442C24.5018 15.1366 21.5024 16.7743 21.5024 20.1096C21.5024 22.1476 23.0297 24.0583 25.6765 24.0583C27.3141 24.0583 28.6729 23.4035 29.4917 22.3699H29.5745C29.5745 22.3699 30.1173 24.6287 33.0999 23.7654C32.9466 22.8192 32.8945 21.8225 32.8945 20.611V15.9646ZM29.3553 19.0929C29.3553 19.3321 29.3353 19.5805 29.2679 19.7937C28.9917 20.7061 28.0503 21.4698 26.8756 21.4698C25.8927 21.4698 25.1137 20.9101 25.1137 19.737C25.1137 17.9428 27.0949 17.449 29.3553 17.4613" fill="white"/>
<path d="M34.8242 6.3533V23.7597H38.3634V20.0686V6.3533H34.8242Z" fill="white"/>
<path d="M83.4306 6.3533V19.1961C83.4306 20.9688 83.7633 22.2048 84.4794 22.9623C85.1082 23.6263 86.1371 24.0587 87.3624 24.0587C88.4144 24.0587 89.4433 23.8563 89.9294 23.68L89.8864 20.9151C89.523 20.9995 89.1074 21.0715 88.537 21.0715C87.3287 21.0715 86.93 20.3063 86.93 18.7146V13.7983H90.0122V10.4722H86.93V6.3533" fill="white"/>
<path d="M74.2829 10.6864V23.7654H77.9417V17.0672C77.9417 16.7068 77.9646 16.3955 78.0214 16.1073C78.2944 14.6949 79.3662 13.8009 80.9105 13.8009C81.3414 13.8009 81.6342 13.8484 81.9594 13.8991V10.4702C81.6864 10.4212 81.5009 10.3951 81.165 10.3951C79.7956 10.3951 78.2437 11.2646 77.5889 13.1584H77.4985V10.6864" fill="white"/>
<path d="M40.4186 10.6864V23.7654H43.9839V16.0888C43.9839 15.7285 44.0237 15.3604 44.151 15.0277C44.4409 14.2502 45.1601 13.3501 46.3148 13.3501C47.7501 13.3501 48.4279 14.5615 48.4279 16.3097V23.7654H51.984V15.9968C51.984 15.6579 52.0316 15.2424 52.1312 14.9418C52.4165 14.0601 53.1954 13.3501 54.272 13.3501C55.7226 13.3501 56.425 14.5354 56.425 16.5964V23.7654H59.9779V16.0536C59.9779 12.0022 57.917 10.3951 55.5769 10.3951C54.548 10.3951 53.7291 10.6481 52.993 11.102C52.3704 11.4838 51.8246 12.0221 51.3353 12.726H51.2817C50.7189 11.3182 49.3971 10.3951 47.6703 10.3951C45.456 10.3951 44.4501 11.513 43.8582 12.4576H43.8045V10.6864" fill="white"/>
<path d="M109.16 10.0994C109.86 10.0994 110.448 9.73446 110.525 9.26521L111.218 1.41386C111.218 0.636391 110.303 0 109.16 0C108.012 0 107.102 0.636391 107.102 1.41386L107.802 9.26521C107.875 9.73446 108.461 10.0994 109.16 10.0994Z" fill="white"/>
<path d="M104.908 12.5562C105.254 11.9428 105.234 11.2619 104.86 10.9583L98.3888 6.43306C97.7156 6.0405 96.7081 6.5082 96.1315 7.49882C95.5565 8.48791 95.673 9.59814 96.3324 9.98304L103.497 13.3045C103.955 13.4763 104.555 13.1573 104.908 12.5501" fill="white"/>
<path d="M113.412 12.5497C113.779 13.157 114.378 13.476 114.824 13.3134L121.989 9.98271C122.654 9.59015 122.754 8.49065 122.191 7.50156C121.616 6.51094 120.603 6.04631 119.931 6.4312L113.458 10.9519C113.099 11.2601 113.073 11.944 113.42 12.5559" fill="white"/>
<path d="M109.16 19.9067C109.86 19.9067 110.448 20.2717 110.525 20.7409L111.218 28.5923C111.218 29.3697 110.303 30 109.16 30C108.012 30 107.102 29.3697 107.102 28.5923L107.802 20.7409C107.875 20.2717 108.461 19.9067 109.16 19.9067Z" fill="white"/>
<path d="M113.412 17.4569C113.779 16.8481 114.378 16.523 114.824 16.6993L121.989 20.0239C122.654 20.4088 122.754 21.5175 122.191 22.5081C121.616 23.4911 120.603 23.9588 119.931 23.5739L113.458 19.0471C113.099 18.7419 113.073 18.061 113.42 17.4569" fill="white"/>
<path d="M104.908 17.4501C105.254 18.062 105.234 18.7413 104.86 19.048L98.3888 23.5671C97.7156 23.9597 96.7081 23.4904 96.1315 22.5075C95.5565 21.5184 95.673 20.4082 96.3324 20.0233L103.497 16.6987C103.955 16.5239 104.555 16.8459 104.908 17.4501Z" fill="white"/>
<path d="M124.085 22.8849H124.174C124.296 22.8849 124.345 22.9232 124.358 23.0198C124.384 23.1272 124.398 23.1992 124.424 23.2299H124.654C124.634 23.2069 124.608 23.1486 124.595 23.0137C124.568 22.8971 124.509 22.8312 124.424 22.8082V22.7867C124.541 22.7607 124.608 22.6825 124.608 22.5859C124.608 22.4984 124.568 22.4356 124.529 22.3957C124.452 22.3589 124.378 22.3298 124.216 22.3298C124.072 22.3298 123.966 22.342 123.881 22.362V23.2299H124.085V22.8849ZM124.092 22.4892L124.196 22.4754C124.319 22.4754 124.384 22.5322 124.384 22.6119C124.384 22.7009 124.296 22.7423 124.182 22.7423H124.092V22.4892ZM124.222 21.9004C123.719 21.9004 123.32 22.293 123.32 22.7745C123.32 23.2682 123.719 23.6608 124.222 23.6608C124.731 23.6608 125.117 23.2682 125.117 22.7745C125.117 22.293 124.731 21.9004 124.222 21.9004ZM124.222 22.0767C124.608 22.0767 124.895 22.3896 124.895 22.7745C124.895 23.1624 124.608 23.4845 124.222 23.4783C123.835 23.4783 123.543 23.1624 123.543 22.7745C123.543 22.3896 123.835 22.0767 124.216 22.0767" fill="white"/>
</g>
<defs>
<clipPath id="clip0_1740_6903">
<rect width="125.117" height="30" fill="white"/>
</clipPath>
</defs>
</svg>
