<svg width="21" height="21" viewBox="0 0 21 21" fill="none" xmlns="http://www.w3.org/2000/svg">
<path d="M10.4004 10.4V12.025" stroke="#8C8599"/>
<path d="M10.4004 18.525V16.9M10.4004 16.9V14.8688M10.4004 16.9L10.7791 16.9947C11.5553 17.1888 12.1786 17.766 12.4316 18.525M10.4004 16.9L10.0217 16.9947C9.2455 17.1888 8.62217 17.766 8.36914 18.525M5.52539 13.65L4.82245 11.5412C4.76305 11.363 4.73335 11.2739 4.67571 11.1496C4.61807 11.0252 4.59437 10.9862 4.54697 10.9083C4.17617 10.2986 3.68305 9.99377 2.27539 9.99377M15.2754 13.65L15.9784 11.5412C16.0378 11.363 16.0674 11.2739 16.1251 11.1496C16.1827 11.0252 16.2064 10.9862 16.2538 10.9083C16.6246 10.2986 17.1177 9.99377 18.5254 9.99377" stroke="#8C8599" stroke-linecap="round"/>
<path d="M5.52539 13.2438C5.52539 12.795 5.88916 12.4313 6.33789 12.4313H14.4629C14.9116 12.4313 15.2754 12.795 15.2754 13.2438C15.2754 14.1413 14.5479 14.8688 13.6504 14.8688H7.15039C6.25293 14.8688 5.52539 14.1413 5.52539 13.2438Z" stroke="#E7EAF0"/>
<path d="M6.03603 6.14724C6.23214 4.51299 6.3302 3.69586 6.80281 3.13758C6.9528 2.96041 7.12733 2.80557 7.32111 2.67776C7.93172 2.27502 8.75471 2.27502 10.4007 2.27502C12.0466 2.27502 12.8697 2.27502 13.4803 2.67776C13.6741 2.80557 13.8486 2.96041 13.9986 3.13758C14.4712 3.69586 14.5693 4.51299 14.7653 6.14724L14.8392 6.7628C15.0427 8.45886 15.1445 9.30689 14.6596 9.85346C14.1747 10.4 13.3205 10.4 11.6123 10.4H9.18898C7.48079 10.4 6.62668 10.4 6.14178 9.85346C5.65687 9.30689 5.75863 8.45886 5.96216 6.7628L6.03603 6.14724Z" stroke="#E7EAF0"/>
</svg>
