<svg width="24" height="24" viewBox="0 0 24 24" fill="none" xmlns="http://www.w3.org/2000/svg">
<path d="M13.6811 13.3038C12.3865 14.5985 10.4662 14.2434 8.81579 13.0093M7.31717 2.69727C7.01359 3.00084 6.75334 3.31525 6.53312 3.63766M5.74383 5.327C5.52815 6.10775 5.49282 6.90534 5.59849 7.68592M6.13818 9.5928C6.44209 10.2968 6.84693 10.9583 7.31717 11.5469" stroke="#8C8599" stroke-linecap="round"/>
<path d="M10.8618 13.5234C9.56562 12.2304 9.91839 10.3096 11.1504 8.65776M21.4607 7.14681C21.1568 6.8436 20.8421 6.58372 20.5194 6.36389M18.8291 5.57661C18.0481 5.36187 17.2505 5.32749 16.47 5.4341M14.5638 5.97607C13.8602 6.28082 13.1991 6.68645 12.6111 7.15739" stroke="#8C8599" stroke-linecap="round"/>
<path d="M10.6318 10.6962C11.9264 9.40158 13.8467 9.75665 15.4971 10.9907M16.9957 21.3027C17.2993 20.9992 17.5596 20.6848 17.7798 20.3623M18.5691 18.673C18.7848 17.8923 18.8201 17.0947 18.7144 16.3141M18.1747 14.4072C17.8708 13.7032 17.466 13.0417 16.9957 12.4531" stroke="#8C8599" stroke-linecap="round"/>
<path d="M13.4505 10.4766C14.7467 11.7696 14.3939 13.6904 13.1619 15.3423M2.85156 16.8532C3.1555 17.1565 3.47022 17.4163 3.79289 17.6362M5.48317 18.4234C6.26418 18.6382 7.06182 18.6726 7.84227 18.566M9.7485 18.024C10.4521 17.7192 11.1132 17.3136 11.7012 16.8427" stroke="#8C8599" stroke-linecap="round"/>
<path d="M10 12C10 12.5304 10.2107 13.0391 10.5858 13.4142C10.9609 13.7893 11.4696 14 12 14C12.5304 14 13.0391 13.7893 13.4142 13.4142C13.7893 13.0391 14 12.5304 14 12C14 11.4696 13.7893 10.9609 13.4142 10.5858C13.0391 10.2107 12.5304 10 12 10C11.4696 10 10.9609 10.2107 10.5858 10.5858C10.2107 10.9609 10 11.4696 10 12Z" stroke="#E7EAF0"/>
<path d="M12 10C17 10 16.6 22 9 22" stroke="#E7EAF0" stroke-linecap="round"/>
<path d="M12.3116 14C7.31157 14 7.71157 2 15.3116 2" stroke="#E7EAF0" stroke-linecap="round"/>
<path d="M10 12.3116C10 7.31157 22 7.71157 22 15.3116" stroke="#E7EAF0" stroke-linecap="round"/>
<path d="M14 12C14 17 2 16.6 2 9" stroke="#E7EAF0" stroke-linecap="round"/>
</svg>
