<svg width="21" height="21" viewBox="0 0 21 21" fill="none" xmlns="http://www.w3.org/2000/svg">
<path d="M15.6816 6.33752C16.8035 6.33752 17.7129 5.4281 17.7129 4.30627C17.7129 3.18445 16.8035 2.27502 15.6816 2.27502C14.5598 2.27502 13.6504 3.18445 13.6504 4.30627C13.6504 5.4281 14.5598 6.33752 15.6816 6.33752Z" stroke="#8C8599" stroke-width="1.3"/>
<path d="M12.0257 7.55627L10.2214 9.81145C9.54174 10.6608 9.20195 11.0856 9.14776 11.5481C9.11729 11.8081 9.15011 12.0716 9.24339 12.3162C9.4093 12.7513 9.84285 13.0797 10.71 13.7366C11.3705 14.2371 11.7007 14.4872 11.9246 14.8143C12.0522 15.0008 12.1533 15.2043 12.2249 15.4186C12.3505 15.7945 12.3505 16.2088 12.3505 17.0375V18.5249" stroke="#8C8599" stroke-width="1.3" stroke-linecap="round"/>
<path d="M7.96289 14.4625L7.14977 15.4383C6.55077 16.1571 6.25126 16.5164 5.84182 16.7083C5.43238 16.9 4.96455 16.9 4.02887 16.9H3.08789" stroke="#E7EAF0" stroke-width="1.3" stroke-linecap="round"/>
<path d="M3.59946 7.94983C3.30684 8.11609 3.20441 8.48808 3.37067 8.78075C3.53693 9.07333 3.90892 9.17578 4.20154 9.00946L3.59946 7.94983ZM17.713 11.0095C18.0495 11.0095 18.3224 10.7367 18.3224 10.4001C18.3224 10.0636 18.0495 9.79076 17.713 9.79076V11.0095ZM4.76595 7.28705L3.59946 7.94983L4.20154 9.00946L5.36803 8.3467L4.76595 7.28705ZM12.9405 9.21503L12.9912 9.291L14.0052 8.61491L13.9545 8.53895L12.9405 9.21503ZM9.62554 5.45012C9.54234 5.44148 9.46857 5.4362 9.40357 5.43333L9.34954 6.65089C9.38967 6.65265 9.43948 6.6561 9.49977 6.66236L9.62554 5.45012ZM5.36803 8.3467C7.25166 7.27645 8.11903 6.79558 8.98464 6.67605L8.81792 5.46876C7.66488 5.62798 6.56016 6.26761 4.76595 7.28705L5.36803 8.3467ZM16.2023 11.0095H17.713V9.79076H16.2023V11.0095ZM9.40357 5.43333C9.1898 5.42385 8.98814 5.44525 8.81792 5.46876L8.98464 6.67605C9.12935 6.65607 9.24562 6.64628 9.34954 6.65089L9.40357 5.43333ZM12.9912 9.291C13.707 10.3646 14.9119 11.0095 16.2023 11.0095V9.79076C15.3195 9.79076 14.4949 9.3495 14.0052 8.61491L12.9912 9.291ZM13.9545 8.53895C12.9979 7.10399 11.5615 5.65106 9.62554 5.45012L9.49977 6.66236C10.883 6.80593 12.0461 7.87346 12.9405 9.21503L13.9545 8.53895Z" fill="#E7EAF0"/>
</svg>
