<svg width="21" height="21" viewBox="0 0 21 21" fill="none" xmlns="http://www.w3.org/2000/svg">
<path d="M4.71289 7.15002L2.27539 5.52502" stroke="#8C8599" stroke-linecap="round" stroke-linejoin="round"/>
<path d="M16.0879 7.15002L18.5254 5.52502" stroke="#8C8599" stroke-linecap="round" stroke-linejoin="round"/>
<path d="M4.71289 13.65L2.27539 15.275" stroke="#8C8599" stroke-linecap="round" stroke-linejoin="round"/>
<path d="M10.4004 14.3684L13.6504 12.4313" stroke="#8C8599" stroke-linecap="round"/>
<path d="M8.75855 4.61446C9.55986 4.13817 9.96042 3.90002 10.4004 3.90002C10.8404 3.90002 11.2409 4.13817 12.0422 4.61446L14.4461 6.04333C15.2474 6.51962 15.6479 6.75777 15.8679 7.15002C16.0879 7.54228 16.0879 8.01857 16.0879 8.97116V11.8289C16.0879 12.7815 16.0879 13.2577 15.8679 13.65C15.6479 14.0423 15.2474 14.2804 14.4461 14.7567L12.0422 16.1856C11.2409 16.6619 10.8404 16.9 10.4004 16.9C9.96042 16.9 9.55986 16.6619 8.75855 16.1856L6.35473 14.7567C5.55345 14.2804 5.15282 14.0423 4.93286 13.65C4.71289 13.2577 4.71289 12.7815 4.71289 11.8289V8.97116C4.71289 8.01857 4.71289 7.54228 4.93286 7.15002C5.15282 6.75777 5.55345 6.51962 6.35473 6.04333L8.75855 4.61446Z" stroke="#E7EAF0"/>
</svg>
